<svg width="180" height="35" viewBox="0 0 180 35" fill="none" xmlns="http://www.w3.org/2000/svg">
<g id="Group">
<g id="Group_2">
<path id="Vector" d="M22.53 10.07C23.41 10.36 24.04 10.85 24.41 11.55C24.78 12.25 24.97 13.26 24.97 14.57C24.97 15.88 24.79 16.85 24.44 17.55C24.09 18.25 23.51 18.74 22.72 19.03C21.93 19.32 20.83 19.46 19.43 19.46C18.65 19.46 17.9 19.42 17.16 19.33V24.32H12.47V9.85001C13.42 9.77001 14.31 9.71001 15.14 9.68001C15.97 9.65001 17.18 9.64001 18.78 9.64001C20.38 9.64001 21.64 9.78001 22.52 10.07H22.53ZM19.96 15.91C20.18 15.69 20.28 15.24 20.28 14.57C20.28 14.1 20.23 13.74 20.14 13.5C20.05 13.26 19.89 13.09 19.66 13C19.44 12.9 19.11 12.85 18.68 12.85H17.17V16.25H18.68C19.31 16.25 19.74 16.14 19.96 15.91Z" fill="#161616"/>
<path id="Vector_2" d="M32.39 19.9601C32.39 20.1801 32.47 20.3701 32.64 20.5001C32.81 20.6401 33.03 20.7101 33.3 20.7101H44.31L44.5399 24.3201C43.5599 24.4501 36.5 24.3201 35.4 24.3501C34.29 24.3801 32.91 24.4001 31.25 24.4001C30.18 24.4001 29.33 24.1001 28.68 23.4901C28.03 22.8801 27.71 22.0901 27.71 21.1101V9.8501H32.4V19.9601H32.39Z" fill="#161616"/>
<path id="Vector_3" d="M45.29 21.2001L44.53 24.3301H39.75L43.62 11.0301C43.72 10.6801 43.92 10.4001 44.2 10.1801C44.49 9.9601 44.82 9.8501 45.19 9.8501H49.45C49.82 9.8501 50.16 9.9601 50.44 10.1801C50.73 10.4001 50.92 10.6801 51.02 11.0301L54.89 24.3301H50.11L49.35 21.2001L48.59 18.0101L47.85 14.9101C47.72 14.2501 47.63 13.7001 47.59 13.2501H47.01C46.92 13.9101 46.84 14.4601 46.75 14.9101L46.01 18.0101L45.25 21.2001H45.29Z" fill="#161616"/>
<path id="Vector_4" d="M68.2299 10.29L67.9499 13.21C66.2199 13.18 64.4699 13.17 62.6999 13.17C62.1499 13.17 61.7799 13.21 61.5999 13.28C61.4099 13.35 61.3199 13.5 61.3199 13.72C61.3199 13.92 61.4099 14.08 61.5899 14.21C61.7699 14.34 62.1099 14.51 62.6199 14.7L65.3199 15.79C66.5399 16.31 67.4099 16.9 67.9099 17.57C68.4099 18.24 68.6699 19.12 68.6699 20.19C68.6699 21.26 68.4799 22.17 68.1099 22.8C67.7399 23.44 67.1099 23.9 66.2299 24.18C65.3499 24.46 64.1299 24.61 62.5799 24.61C60.6299 24.61 54.3599 24.32 54.3599 24.32L52.6799 20.72C55.5299 20.79 61.7599 20.82 62.5199 20.82C63.1099 20.82 63.4999 20.79 63.6999 20.71C63.8899 20.64 63.9899 20.51 63.9899 20.31C63.9899 20.11 63.9199 19.95 63.7799 19.83C63.6399 19.7 63.3699 19.57 62.9699 19.43L60.0099 18.17C58.7999 17.65 57.9399 17.06 57.4399 16.4C56.9399 15.74 56.6799 14.87 56.6799 13.81C56.6799 12.75 56.8799 11.85 57.2699 11.24C57.6599 10.63 58.2999 10.2 59.1799 9.94005C60.0599 9.68005 61.2699 9.55005 62.8099 9.55005C64.9899 9.55005 66.7899 9.80005 68.2399 10.28L68.2299 10.29Z" fill="#161616"/>
<path id="Vector_5" d="M83.75 13.2501H79.58V24.3301H74.89V13.2501H70.72V9.8501H83.76V13.2501H83.75Z" fill="#161616"/>
<path id="Vector_6" d="M91.0599 24.3201H86.4099V9.8501H91.0599V24.3201Z" fill="#161616"/>
<path id="Vector_7" d="M103.66 9.72008C104.34 9.80008 105.07 9.95008 105.87 10.1601L105.52 13.4701C105.19 13.4701 104.94 13.4701 104.76 13.4501L100.95 13.4301C100.45 13.4301 100.06 13.5301 99.7999 13.7301C99.5399 13.9301 99.3599 14.2901 99.2599 14.8001C99.1599 15.3101 99.1099 16.0701 99.1099 17.0801C99.1099 18.0901 99.1599 18.8501 99.2599 19.3601C99.3599 19.8701 99.5399 20.2301 99.7999 20.4301C100.06 20.6301 100.44 20.7301 100.95 20.7301C102.13 20.7301 103.07 20.7201 103.77 20.7001C104.47 20.6801 105.16 20.6301 105.83 20.5601L106.18 23.8701C105.42 24.1201 104.64 24.3001 103.87 24.4001C103.09 24.5101 102.12 24.5601 100.95 24.5601C99.2799 24.5601 97.9499 24.3201 96.9699 23.8401C95.9899 23.3601 95.2799 22.5701 94.8399 21.4901C94.3999 20.4101 94.1799 18.9301 94.1799 17.0701C94.1799 15.2101 94.3999 13.7401 94.8399 12.6501C95.2799 11.5701 95.9899 10.7801 96.9699 10.3001C97.9499 9.82008 99.2799 9.58008 100.95 9.58008C102.07 9.58008 102.97 9.62008 103.65 9.71008L103.66 9.72008Z" fill="#161616"/>
<path id="Vector_8" d="M117.65 21.2201C117.65 21.7101 117.75 22.0601 117.95 22.2601C118.15 22.4601 118.5 22.5601 119.01 22.5601H124.31L124.42 24.1801C123.02 24.3101 121.1 24.3701 118.67 24.3701C116.55 24.3701 115.49 23.4201 115.49 21.5201V9.86011H117.65V21.2301V21.2201Z" fill="#161616"/>
<path id="Vector_9" d="M135.88 19.9601H129.94L128.56 24.3201H126.35L131.02 10.4101C131.08 10.2301 131.17 10.0901 131.31 9.99009C131.45 9.89009 131.62 9.84009 131.82 9.84009H134.03C134.22 9.84009 134.38 9.89009 134.53 10.0001C134.67 10.1101 134.77 10.2401 134.81 10.4101L139.5 24.3201H137.27L135.89 19.9601H135.88ZM135.3 18.1401L133.57 12.6401L133.2 11.4701H132.62L132.27 12.6401L130.52 18.1401H135.3Z" fill="#161616"/>
<path id="Vector_10" d="M152.53 17.9601C152.98 18.6001 153.21 19.5201 153.21 20.7201C153.21 21.7101 153.05 22.4801 152.73 23.0301C152.41 23.5701 151.91 23.9601 151.23 24.1701C150.55 24.3801 149.61 24.5001 148.41 24.5001C147.03 24.5001 145.95 24.4901 145.18 24.4701C144.41 24.4501 143.61 24.4001 142.79 24.3301V9.86006C143.53 9.79006 144.24 9.74006 144.92 9.72006C145.6 9.70006 146.55 9.69006 147.76 9.69006C148.97 9.69006 150.02 9.80006 150.73 10.0201C151.44 10.2401 151.96 10.6201 152.28 11.1601C152.6 11.7101 152.76 12.4701 152.76 13.4701C152.76 14.5201 152.56 15.3101 152.15 15.8501C151.75 16.3901 151.1 16.7001 150.23 16.7801V16.8601C151.31 16.9601 152.08 17.3201 152.53 17.9601ZM144.91 11.4701V16.0201H147.94C148.65 16.0201 149.19 15.9501 149.58 15.8201C149.97 15.6901 150.25 15.4601 150.42 15.1301C150.59 14.8001 150.68 14.3301 150.68 13.7101C150.68 13.0901 150.59 12.6301 150.4 12.3201C150.21 12.0101 149.9 11.7801 149.47 11.6601C149.04 11.5301 148.43 11.4701 147.65 11.4701H144.9H144.91ZM149.87 22.5201C150.28 22.3901 150.58 22.1601 150.76 21.8301C150.94 21.4901 151.03 21.0001 151.03 20.3601C151.03 19.6301 150.94 19.0801 150.75 18.6901C150.56 18.3101 150.25 18.0401 149.81 17.8801C149.37 17.7201 148.75 17.6401 147.96 17.6301H144.91V22.6901C145.49 22.7001 146.55 22.7101 148.09 22.7101C148.87 22.7101 149.46 22.6501 149.87 22.5201Z" fill="#161616"/>
<path id="Vector_11" d="M166.27 10.0401L166.14 11.5701L165.62 11.5501C164.09 11.4901 162.84 11.4701 161.86 11.4701C161.08 11.4701 160.51 11.5101 160.14 11.5901C159.77 11.6701 159.5 11.8501 159.32 12.1201C159.14 12.4001 159.05 12.8501 159.05 13.4801C159.05 14.1901 159.18 14.7001 159.45 14.9901C159.72 15.2801 160.18 15.5101 160.84 15.6801L163.8 16.4801C164.91 16.7701 165.69 17.2501 166.15 17.9101C166.6 18.5701 166.83 19.4601 166.83 20.5901C166.83 21.7201 166.66 22.5301 166.32 23.1001C165.98 23.6701 165.45 24.0501 164.73 24.2601C164.01 24.4701 163.02 24.5701 161.75 24.5701C160.16 24.5701 158.6 24.4301 157.06 24.1501L157.21 22.6001C159.46 22.6701 160.99 22.7001 161.79 22.7001C162.57 22.6901 163.15 22.6301 163.54 22.5201C163.93 22.4101 164.21 22.2101 164.37 21.9101C164.54 21.6101 164.62 21.1601 164.62 20.5601C164.62 20.0401 164.56 19.6401 164.44 19.3701C164.32 19.0901 164.13 18.8801 163.89 18.7301C163.65 18.5801 163.3 18.4501 162.85 18.3401L159.82 17.5201C158.75 17.2401 157.99 16.7701 157.54 16.1001C157.09 15.4401 156.86 14.5401 156.86 13.4001C156.86 12.2601 157.03 11.4901 157.37 10.9501C157.71 10.4001 158.22 10.0401 158.89 9.86009C159.57 9.68009 160.53 9.59009 161.77 9.59009C163.53 9.59009 165.03 9.74009 166.27 10.0301V10.0401Z" fill="#161616"/>
</g>
<g id="Group_3">
<path id="Vector_12" d="M7.46997 2.32H3.89999C3.72999 2.32 3.59 2.37 3.5 2.49C3.4 2.6 3.34998 2.74 3.34998 2.91V31.44C3.34998 31.61 3.4 31.75 3.5 31.86C3.6 31.97 3.72999 32.03 3.89999 32.03H7.46997V34.35H2.12997C0.709974 34.35 0 33.64 0 32.21V2.14C0 1.5 0.199985 0.99 0.609985 0.59C1.00999 0.2 1.51998 0 2.13998 0H7.47998V2.32H7.46997Z" fill="#161616"/>
<path id="Vector_13" d="M171.84 0H177.18C177.79 0 178.3 0.2 178.71 0.59C179.11 0.98 179.32 1.5 179.32 2.14V32.21C179.32 33.63 178.61 34.35 177.19 34.35H171.85V32.03H175.42C175.59 32.03 175.73 31.97 175.82 31.86C175.92 31.75 175.97 31.61 175.97 31.44V2.91C175.97 2.74 175.92 2.6 175.82 2.49C175.72 2.38 175.59 2.32 175.42 2.32H171.85V0H171.84Z" fill="#161616"/>
</g>
</g>
</svg>
