<svg width="12" height="354" viewBox="0 0 12 354" fill="none" xmlns="http://www.w3.org/2000/svg">
<path d="M0.666667 6C0.666667 8.94552 3.05448 11.3333 6 11.3333C8.94552 11.3333 11.3333 8.94552 11.3333 6C11.3333 3.05448 8.94552 0.666666 6 0.666667C3.05448 0.666667 0.666666 3.05448 0.666667 6ZM0.666681 348C0.666682 350.946 3.0545 353.333 6.00002 353.333C8.94553 353.333 11.3333 350.946 11.3333 348C11.3333 345.054 8.94553 342.667 6.00001 342.667C3.0545 342.667 0.666681 345.054 0.666681 348ZM5 6L5.00001 348L7.00001 348L7 6L5 6Z" fill="black"/>
</svg>
