<svg width="114" height="36" viewBox="0 0 114 36" fill="none" xmlns="http://www.w3.org/2000/svg">
<g id="Group 2">
<g id="Group">
<path id="Vector" d="M58.91 16.34H53.23C53.08 16.34 52.96 16.46 52.96 16.61V19.39C52.96 19.54 53.08 19.66 53.23 19.66H55.45V23.11C55.45 23.11 54.95 23.28 53.58 23.28C51.96 23.28 49.69 22.69 49.69 17.7C49.69 12.71 52.05 12.06 54.27 12.06C56.19 12.06 57.01 12.4 57.54 12.56C57.71 12.61 57.86 12.45 57.86 12.3L58.49 9.62003C58.49 9.55003 58.47 9.47003 58.39 9.41003C58.18 9.26003 56.87 8.53003 53.58 8.53003C49.79 8.53003 45.9 10.14 45.9 17.9C45.9 25.66 50.35 26.81 54.11 26.81C57.22 26.81 59.1 25.48 59.1 25.48C59.18 25.44 59.19 25.33 59.19 25.28V16.62C59.19 16.47 59.07 16.35 58.92 16.35L58.91 16.34Z" fill="white"/>
<path id="Vector_2" d="M88.19 9.45005C88.19 9.30005 88.07 9.18005 87.93 9.18005H84.73C84.58 9.18005 84.47 9.30005 84.47 9.45005V15.6301H79.48V9.45005C79.48 9.30005 79.36 9.18005 79.22 9.18005H76.02C75.87 9.18005 75.76 9.30005 75.76 9.45005V26.1901C75.76 26.3401 75.88 26.4601 76.02 26.4601H79.22C79.37 26.4601 79.48 26.3401 79.48 26.1901V19.0301H84.47V26.1901C84.47 26.3401 84.59 26.4601 84.73 26.4601H87.94C88.09 26.4601 88.2 26.3401 88.2 26.1901V9.45005H88.19Z" fill="white"/>
<g id="Group_2">
<path id="Vector_3" d="M64.9501 11.6401C64.9501 10.4901 64.0301 9.56006 62.8901 9.56006C61.7501 9.56006 60.8301 10.4901 60.8301 11.6401C60.8301 12.7901 61.7501 13.7201 62.8901 13.7201C64.0301 13.7201 64.9501 12.7901 64.9501 11.6401Z" fill="white"/>
<path id="Vector_4" d="M64.7201 22.65V14.92C64.7201 14.77 64.6001 14.65 64.4601 14.65H61.2701C61.1201 14.65 60.9901 14.8 60.9901 14.95V26.02C60.9901 26.35 61.1901 26.44 61.4501 26.44H64.3201C64.6401 26.44 64.7101 26.29 64.7101 26.01V22.64L64.7201 22.65Z" fill="white"/>
</g>
<path id="Vector_5" d="M100.34 14.6901H97.17C97.02 14.6901 96.91 14.8101 96.91 14.9601V23.1701C96.91 23.1701 96.1 23.7601 94.96 23.7601C93.82 23.7601 93.51 23.2401 93.51 22.1201V14.9601C93.51 14.8101 93.39 14.6901 93.25 14.6901H90.03C89.88 14.6901 89.77 14.8101 89.77 14.9601V22.6601C89.77 25.9901 91.62 26.8001 94.18 26.8001C96.27 26.8001 97.96 25.6401 97.96 25.6401C97.96 25.6401 98.04 26.2501 98.08 26.3201C98.12 26.3901 98.21 26.4601 98.31 26.4601H100.36C100.51 26.4601 100.62 26.3301 100.62 26.1801V14.9501C100.62 14.8001 100.5 14.6801 100.35 14.6801L100.34 14.6901Z" fill="white"/>
<path id="Vector_6" d="M109.02 14.31C107.22 14.31 105.99 15.11 105.99 15.11V9.44004C105.99 9.29004 105.87 9.17004 105.73 9.17004H102.52C102.37 9.17004 102.26 9.29004 102.26 9.44004V26.18C102.26 26.33 102.38 26.45 102.52 26.45H104.75C104.85 26.45 104.93 26.4 104.98 26.31C105.04 26.22 105.12 25.54 105.12 25.54C105.12 25.54 106.43 26.78 108.91 26.78C111.82 26.78 113.5 25.3 113.5 20.14C113.5 14.98 110.83 14.31 109.03 14.31H109.02ZM107.77 23.74C106.67 23.71 105.92 23.21 105.92 23.21V17.91C105.92 17.91 106.66 17.46 107.56 17.38C108.7 17.28 109.8 17.62 109.8 20.35C109.8 23.22 109.3 23.79 107.76 23.75L107.77 23.74Z" fill="white"/>
<path id="Vector_7" d="M73.91 14.6601H71.51V11.4901C71.51 11.3701 71.45 11.3101 71.31 11.3101H68.04C67.91 11.3101 67.84 11.3701 67.84 11.4901V14.7701C67.84 14.7701 66.2 15.1701 66.09 15.2001C65.98 15.2301 65.9 15.3301 65.9 15.4601V17.5201C65.9 17.6701 66.02 17.7901 66.16 17.7901H67.84V22.7401C67.84 26.4201 70.42 26.7801 72.16 26.7801C72.96 26.7801 73.91 26.5201 74.06 26.4701C74.15 26.4401 74.21 26.3401 74.21 26.2301V23.9701C74.21 23.8201 74.09 23.7001 73.95 23.7001C73.81 23.7001 73.45 23.7601 73.08 23.7601C71.9 23.7601 71.5 23.2101 71.5 22.5001C71.5 21.7901 71.5 17.7901 71.5 17.7901H73.9C74.05 17.7901 74.16 17.6701 74.16 17.5201V14.9401C74.16 14.7901 74.04 14.6701 73.9 14.6701L73.91 14.6601Z" fill="white"/>
</g>
<path id="Vector_8" d="M12.44 15.05L20.22 6.01001H18.38L11.63 13.86L6.24 6.01001H0L8.16 17.88L0 27.36H1.84L8.97 19.07L14.67 27.36H20.89L12.43 15.05H12.44ZM9.92 17.98L9.09 16.8L2.51 7.39001H5.34L10.65 14.98L11.48 16.16L18.38 26.03H15.55L9.92 17.98Z" fill="white"/>
<path id="Vector_9" d="M33.01 0V35.32" stroke="white" stroke-width="0.8" stroke-miterlimit="10"/>
</g>
</svg>
