<?xml version="1.0" encoding="UTF-8"?>
<svg id="Layer_2" data-name="Layer 2" xmlns="http://www.w3.org/2000/svg" viewBox="0 0 2484.16 443.45">
  <defs>
    <style>
      .cls-1 {
        fill: #0f0f10;
        stroke-width: 0px;
      }
    </style>
  </defs>
  <path class="cls-1" d="M182.04,65.16c-13.17-5-30.94-7.5-53.31-7.5-14.75,0-27.38.07-37.91.2-10.53.14-20.27.46-29.22.99-8.95.53-18.43,1.32-28.43,2.37v272.47h39.49v-107.36c8.58,1.03,17.99,1.81,28.23,2.32,10.4.53,21.26.79,32.58.79,20.79,0,37.45-2.43,49.95-7.31,12.5-4.87,21.52-13.56,27.05-26.06,5.53-12.5,8.29-29.94,8.29-52.32s-2.83-40.14-8.49-52.52c-5.66-12.37-15.07-21.06-28.23-26.06ZM174.14,176.12c-3.16,7.64-8.43,12.9-15.79,15.8-7.37,2.9-17.38,4.48-30.01,4.74h-55.68v-105.85c15.72-.24,34.28-.37,55.68-.37,12.64,0,22.64,1.52,30.01,4.54,7.37,3.03,12.64,8.36,15.79,15.99,3.16,7.64,4.74,18.56,4.74,32.78s-1.58,24.75-4.74,32.38Z"/>
  <path class="cls-1" d="M332.09,300.9c-8.69,0-15.14-2.04-19.35-6.12-4.21-4.08-6.32-10.33-6.32-18.76V61.21h-39.09v220.74c0,15.01,4.34,27.44,13.03,37.32s23.03,14.81,43.04,14.81c18.16,0,36.33-.14,54.49-.4,18.16-.26,36.06-1.05,53.7-2.37l-1.97-30.41h-97.54Z"/>
  <path class="cls-1" d="M592.71,64.17c-2.63-1.97-5.66-2.96-9.08-2.96h-40.28c-3.42,0-6.45.99-9.08,2.96-2.63,1.97-4.48,4.54-5.53,7.7l-86.08,261.81h40.67l25.7-82.93h108.53l25.7,82.93h41.07l-86.08-261.81c-1.06-3.16-2.9-5.73-5.53-7.7ZM519.18,217.98l32.06-103.46c1.31-3.95,2.5-7.9,3.55-11.85,1.05-3.95,2.1-7.63,3.16-11.06h11.06c1.05,3.42,2.1,7.11,3.16,11.06,1.05,3.95,2.1,7.9,3.16,11.85l32.06,103.46h-88.21Z"/>
  <path class="cls-1" d="M836.35,186.39l-54.89-14.61c-11.85-2.89-20.4-7.17-25.67-12.83-5.27-5.66-7.9-15.46-7.9-29.42,0-9.21.99-16.45,2.96-21.72,1.97-5.26,5.07-9.08,9.28-11.45,4.21-2.37,9.61-3.81,16.19-4.34,6.58-.52,14.48-.79,23.69-.79,13.16,0,26.78.14,40.87.4,14.08.27,26.78.66,38.11,1.18l2.76-28.04c-13.96-3.16-27.98-5.26-42.06-6.32-14.09-1.05-27.71-1.71-40.87-1.97-15.8,0-29.36.86-40.67,2.57-11.32,1.71-20.67,5-28.04,9.87-7.37,4.87-12.83,12.18-16.39,21.92-3.55,9.74-5.33,22.51-5.33,38.3,0,20.53,4.08,36.99,12.24,49.36,8.16,12.38,22.11,21.32,41.86,26.85l56.47,15.4c7.63,1.84,13.88,4.15,18.76,6.91,4.87,2.76,8.42,6.91,10.66,12.44,2.23,5.53,3.36,13.17,3.36,22.9,0,11.32-1.58,19.94-4.74,25.86-3.16,5.92-8.56,9.87-16.19,11.85-7.64,1.97-18.03,2.96-31.2,2.96h-21.32c-7.11,0-15.6-.2-25.47-.59-9.87-.39-22.58-.85-38.11-1.38l-2.76,28.83c19.21,3.68,36.19,5.92,50.94,6.71,14.74.79,26.59,1.19,35.54,1.19,16.32,0,30.41-1.06,42.25-3.16,11.85-2.1,21.52-5.79,29.02-11.06,7.5-5.26,13.03-12.77,16.58-22.51,3.55-9.74,5.33-22.51,5.33-38.3,0-21.06-3.95-37.84-11.85-50.35-7.9-12.5-22.38-21.39-43.44-26.65Z"/>
  <polygon class="cls-1" points="1006.54 61.21 920.06 61.21 920.06 95.17 1006.54 95.17 1006.54 333.68 1046.03 333.68 1046.03 95.17 1132.9 95.17 1132.9 61.21 1046.03 61.21 1006.54 61.21"/>
  <rect class="cls-1" x="1175.15" y="61.21" width="39.49" height="272.47"/>
  <path class="cls-1" d="M1422.54,302.68c-11.72.66-26.13.99-43.24.99s-30.15-3.29-39.88-9.87c-9.74-6.58-16.65-17.57-20.73-32.97-4.08-15.4-6.12-36.53-6.12-63.38s2.04-47.98,6.12-63.38c4.08-15.4,10.99-26.39,20.73-32.97,9.74-6.58,23.03-9.87,39.88-9.87,10.79,0,20.07.14,27.84.4,7.76.27,15.07.59,21.92.99,6.84.39,14.22.99,22.11,1.78l3.95-29.62c-7.64-2.1-15.01-3.75-22.11-4.94-7.11-1.18-14.88-2.04-23.3-2.57-8.43-.52-18.56-.79-30.41-.79-26.33,0-47.45,4.54-63.38,13.62-15.93,9.08-27.44,23.89-34.55,44.42-7.11,20.53-10.66,48.18-10.66,82.93s3.55,62.39,10.66,82.93c7.11,20.53,18.62,35.34,34.55,44.42,15.92,9.08,37.05,13.62,63.38,13.62,18.16,0,33.37-.73,45.61-2.17,12.24-1.45,24.15-3.88,35.74-7.31l-3.95-29.62c-11.06,1.58-22.45,2.7-34.16,3.36Z"/>
  <path class="cls-1" d="M1658.87,300.9c-8.69,0-15.14-2.04-19.35-6.12-4.21-4.08-6.32-10.33-6.32-18.76V61.21h-39.09v220.74c0,15.01,4.34,27.44,13.03,37.32s23.03,14.81,43.04,14.81c18.16,0,36.33-.14,54.49-.4,18.16-.26,36.06-1.05,53.7-2.37l-1.97-30.41h-97.54Z"/>
  <path class="cls-1" d="M1919.49,64.17c-2.63-1.97-5.66-2.96-9.08-2.96h-40.28c-3.42,0-6.45.99-9.08,2.96-2.63,1.97-4.48,4.54-5.53,7.7l-86.08,261.81h40.67l25.7-82.93h108.53l25.7,82.93h41.07l-86.08-261.81c-1.05-3.16-2.9-5.73-5.53-7.7ZM1845.97,217.98l32.06-103.46c1.31-3.95,2.5-7.9,3.55-11.85,1.05-3.95,2.1-7.63,3.16-11.06h11.06c1.05,3.42,2.1,7.11,3.16,11.06,1.05,3.95,2.1,7.9,3.16,11.85l32.06,103.46h-88.21Z"/>
  <path class="cls-1" d="M2184.06,193.1v-1.58c16.32-1.58,28.1-7.5,35.34-17.77,7.24-10.27,10.86-25.14,10.86-44.62s-2.96-33.17-8.89-43.44c-5.92-10.27-15.54-17.44-28.83-21.52-13.3-4.08-31.26-6.12-53.9-6.12-13.96,0-26,.07-36.13.2-10.14.14-19.48.4-28.04.79-8.56.39-17.57,1.12-27.05,2.17v272.47c10.53.79,20.66,1.44,30.41,1.97,9.74.52,20.34.85,31.79.99,11.45.13,25.2.2,41.26.2,21.06,0,38.04-2.04,50.94-6.12,12.9-4.08,22.31-11.25,28.23-21.52,5.92-10.27,8.89-24.74,8.89-43.44,0-21.85-4.08-38.96-12.24-51.33-8.16-12.37-22.38-19.48-42.65-21.32ZM2136.67,90.43c13.95,0,25.01,1.12,33.17,3.36,8.16,2.24,13.95,6.52,17.37,12.83,3.42,6.32,5.13,15.4,5.13,27.25s-1.58,20.6-4.74,27.05c-3.16,6.45-8.43,10.86-15.8,13.23-7.37,2.37-17.38,3.69-30.01,3.95h-55.68v-87.61c4.66-.03,9.66-.05,15.01-.05h35.54ZM2193.93,287.48c-3.42,6.58-9.08,11.06-16.98,13.43-7.9,2.37-18.7,3.55-32.38,3.55-22.11,0-41.46-.13-58.05-.4-.13,0-.26,0-.4,0v-97.13h56.07c14.48.27,25.8,1.91,33.96,4.94,8.16,3.03,14.02,8.16,17.57,15.4,3.55,7.24,5.33,17.71,5.33,31.39,0,12.64-1.71,22.25-5.13,28.83Z"/>
  <path class="cls-1" d="M2452.97,213.04c-7.9-12.5-22.38-21.39-43.44-26.65l-54.89-14.61c-11.85-2.89-20.4-7.17-25.67-12.83-5.27-5.66-7.9-15.46-7.9-29.42,0-9.21.99-16.45,2.96-21.72,1.97-5.26,5.07-9.08,9.28-11.45,4.21-2.37,9.61-3.81,16.19-4.34,6.58-.52,14.47-.79,23.69-.79,13.16,0,26.78.14,40.87.4,14.08.27,26.78.66,38.11,1.18l2.76-28.04c-13.96-3.16-27.98-5.26-42.06-6.32-14.09-1.05-27.71-1.71-40.87-1.97-15.79,0-29.36.86-40.67,2.57-11.32,1.71-20.67,5-28.04,9.87-7.37,4.87-12.83,12.18-16.39,21.92-3.55,9.74-5.33,22.51-5.33,38.3,0,20.53,4.08,36.99,12.24,49.36,8.16,12.38,22.11,21.32,41.86,26.85l56.47,15.4c7.63,1.84,13.88,4.15,18.76,6.91,4.87,2.76,8.42,6.91,10.66,12.44,2.23,5.53,3.36,13.17,3.36,22.9,0,11.32-1.58,19.94-4.74,25.86-3.16,5.92-8.56,9.87-16.19,11.85-7.64,1.97-18.03,2.96-31.2,2.96h-21.32c-7.11,0-15.6-.2-25.47-.59-9.87-.39-22.58-.85-38.11-1.38l-2.76,28.83c19.21,3.68,36.19,5.92,50.94,6.71,14.74.79,26.59,1.19,35.54,1.19,16.32,0,30.41-1.06,42.25-3.16,11.85-2.1,21.52-5.79,29.02-11.06,7.5-5.26,13.03-12.77,16.58-22.51,3.55-9.74,5.33-22.51,5.33-38.3,0-21.06-3.95-37.84-11.85-50.35Z"/>
</svg>