<?xml version="1.0" encoding="UTF-8"?>
<svg id="Layer_2" data-name="Layer 2" xmlns="http://www.w3.org/2000/svg" viewBox="0 0 949.19 949.19">
  <defs>
    <style>
      .cls-1 {
        fill: #0f0f10;
      }

      .cls-1, .cls-2 {
        stroke-width: 0px;
      }

      .cls-2 {
        fill: #fff;
      }
    </style>
  </defs>
  <circle class="cls-2" cx="474.59" cy="474.59" r="474.59"/>
  <path class="cls-1" d="m786.81,458.37c-.42-20.06-4.41-37.75-11.87-52.57-10.47-20.8-27.58-34.22-50.87-39.91-20.76-5.07-43.64-3.28-61.25-1.16-70.42,8.48-142.22,16.19-211.67,23.65l-18.72,2.01c-29.92,3.21-60.85,6.54-90.49,16.66-17.43,5.95-32.97,13.89-46.2,23.6-15.41,11.31-27.24,24.76-35.17,39.97-1.36,2.6-2.67,5.35-3.9,8.15-9.51,21.64-14.14,46.51-13.61,71.95-17.12-9.87-28.78-24.09-36.38-36.64-11.79-19.47-18.91-43.01-20.57-68.05-1.66-24.97,2.25-49.06,11.3-69.65,1.02-2.33,2.11-4.6,3.23-6.75,15.99-30.67,49.58-45.9,68.19-52.25,27.17-9.28,56.79-12.46,85.44-15.54l18.71-2.01c69.52-7.46,141.41-15.18,211.97-23.68,29.76-3.59,59.41-4.09,78.01,13.92-.58,1.88-.89,3.87-.89,5.93,0,11.09,9.02,20.11,20.11,20.11s20.11-9.02,20.11-20.11-9.02-20.11-20.11-20.11c-.12,0-.23,0-.35,0-10.69-11.49-24.79-19.09-42.08-22.63-19.83-4.06-41.19-2.32-57.59-.34-70.42,8.48-142.23,16.19-211.67,23.65l-18.71,2.01c-29.92,3.21-60.85,6.54-90.49,16.66-17.43,5.95-32.97,13.89-46.2,23.6-15.41,11.31-27.24,24.76-35.17,39.97-1.36,2.61-2.67,5.35-3.9,8.15-21.57,49.08-17.27,113.07,10.68,159.24,21.78,35.95,55.67,57.24,95.44,59.94,4.44.3,8.97.45,13.53.45,14.88,0,30.12-1.59,44.02-4.63,22.83-5,41.03-13.5,54.11-25.27,10.36-9.33,17.79-20.38,24.97-31.07,7.33-10.91,14.26-21.22,23.74-28.92,6.79-5.51,12.65-8.23,17.47-8.07h.34s.34,0,.34,0c5.14-.13,11.24,2.9,18.17,9.01,3.9,3.44,7.52,6.99,11.01,10.43,13.68,13.45,27.82,27.36,54.42,28.17,28.96.88,57.78-6,83.32-19.89,27.76-15.09,49.03-41.7,61.53-76.94,6.46-18.21,11.13-36.01,13.96-53.07,5.3.37,10.53,1.08,15.5,2.29,16.79,4.1,28.08,12.9,35.52,27.7,5.88,11.68,9.04,25.99,9.38,42.54.65,31.38-8.19,63.28-15.72,84.52-10.69,30.14-27.73,51.74-50.66,64.21-21.9,11.91-46.62,17.8-71.43,17.06-17.44-.53-25.91-8.86-38.73-21.46-3.72-3.66-7.57-7.44-11.94-11.3-11.38-10.04-22.77-15.04-33.89-14.86-.28,0-.57-.01-.85-.01-10.35,0-20.76,4.36-31.78,13.31-12.2,9.91-20.44,22.18-28.41,34.04-6.68,9.95-12.99,19.34-21.2,26.73-21.34,19.21-62.81,25.64-94.43,23.5-30.53-2.07-51.24-16.84-64.57-31.79.6-1.91.93-3.94.93-6.05,0-11.09-9.02-20.11-20.11-20.11s-20.11,9.02-20.11,20.11,9.02,20.11,20.11,20.11c.12,0,.24,0,.37,0,21.27,24.74,49.3,38.88,81.8,41.08,4.44.3,8.97.45,13.53.45,14.88,0,30.11-1.59,44.02-4.63,22.83-5,41.03-13.5,54.11-25.27,10.37-9.33,17.79-20.38,24.97-31.07,7.33-10.91,14.26-21.22,23.74-28.92,6.79-5.51,12.65-8.21,17.47-8.07h.34s.34,0,.34,0c5.13-.14,11.24,2.9,18.17,9.01,3.9,3.44,7.51,6.99,11.01,10.43,13.68,13.45,27.82,27.36,54.42,28.17,28.97.88,57.78-6,83.32-19.89,27.75-15.09,49.03-41.7,61.53-76.94,8.19-23.08,17.79-57.92,17.06-92.83Zm-170.45,37.41c-21.9,11.91-46.62,17.8-71.43,17.06-17.44-.53-25.91-8.86-38.73-21.46-3.72-3.66-7.57-7.44-11.94-11.3-11.38-10.04-22.77-15.05-33.89-14.86-10.66-.26-21.31,4.11-32.64,13.3-12.2,9.91-20.44,22.18-28.41,34.04-6.68,9.95-12.99,19.34-21.2,26.73-21.34,19.21-62.8,25.64-94.43,23.5-5.94-.4-11.5-1.29-16.73-2.56-2.1-25.52,1.74-50.7,11.12-72.06,1.02-2.33,2.11-4.6,3.23-6.75,15.99-30.66,49.58-45.9,68.18-52.25,27.17-9.28,56.79-12.46,85.44-15.54l18.71-2.01c69.52-7.46,141.4-15.18,211.97-23.68,4.26-.51,8.85-1,13.62-1.37-2.65,14.46-6.74,29.54-12.22,44.99-10.69,30.14-27.73,51.74-50.66,64.21Z"/>
</svg>