<?xml version="1.0" encoding="UTF-8"?>
<svg id="Layer_2" data-name="Layer 2" xmlns="http://www.w3.org/2000/svg" viewBox="0 0 1920 522.08">
  <defs>
    <style>
      .cls-1 {
        fill: #fff;
        stroke-width: 0px;
      }
    </style>
  </defs>
  <path class="cls-1" d="m300.33,191.76c-8.62-2.81-20.83-4.21-36.64-4.21s-27.56.14-35.68.41c-8.12.28-16.83.82-26.15,1.65v141.77h45.95v-48.9c7.2.82,14.61,1.23,22.24,1.23,13.69,0,24.42-1.4,32.19-4.21,7.76-2.81,13.38-7.64,16.83-14.48,3.46-6.85,5.19-16.58,5.19-29.18s-1.84-22.74-5.51-29.58c-3.67-6.85-9.81-11.69-18.42-14.49Zm-25.2,57.23c-2.12,2.19-6.28,3.28-12.49,3.28h-14.83v-33.28h14.83c4.24,0,7.44.48,9.64,1.44,2.19.96,3.73,2.6,4.66,4.93.92,2.33,1.37,5.82,1.37,10.48,0,6.58-1.06,10.96-3.17,13.15Z"/>
  <path class="cls-1" d="m719.4,247.75l-26.47-10.68c-4.94-1.92-8.29-3.53-10.06-4.83-1.77-1.3-2.64-2.91-2.64-4.83,0-2.19.91-3.63,2.75-4.32,1.83-.68,5.43-1.03,10.8-1.03,17.36,0,34.52.14,51.46.42l2.75-28.56c-14.12-4.79-31.84-7.19-53.15-7.19-15.11,0-26.97,1.27-35.58,3.8-8.62,2.54-14.86,6.78-18.74,12.74-3.88,5.96-5.82,14.35-5.82,25.18s2.47,18.87,7.41,25.37c4.94,6.51,13.34,12.29,25.2,17.36l29.01,12.33c3.95,1.37,6.6,2.67,7.94,3.9,1.34,1.24,2.01,2.82,2.01,4.73s-.95,3.21-2.86,3.9c-1.91.69-5.75,1.03-11.54,1.03-6.55,0-54.02-.22-84.53-.74l-27.71-95.21c-.99-3.42-2.9-6.2-5.72-8.32-2.83-2.12-6.07-3.18-9.74-3.18h-41.72c-3.67,0-6.92,1.06-9.74,3.18-2.83,2.12-4.73,4.9-5.72,8.32l-27.62,94.92h-73.6c-2.68,0-4.84-.68-6.46-2.05-1.63-1.37-2.44-3.14-2.44-5.34v-99.04h-45.95v110.34c0,9.59,3.17,17.36,9.53,23.32s14.75,8.94,25.2,8.94c16.23,0,29.78-.18,40.66-.52,10.87-.34,79.97.92,89.58-.31l7.41-30.61,7.41-31.24,7.2-30.4c.85-4.38,1.69-9.79,2.54-16.24h5.72c.42,4.38,1.27,9.8,2.54,16.24l7.2,30.4,7.41,31.24,7.41,30.61h41.2s61.5,2.88,80.56,2.88c15.25,0,27.18-1.41,35.79-4.22,8.61-2.81,14.76-7.32,18.43-13.56,3.67-6.23,5.51-14.76,5.51-25.58s-2.47-19.11-7.41-25.68c-4.95-6.58-13.42-12.39-25.41-17.46Z"/>
  <polygon class="cls-1" points="772.35 222.89 813.22 222.89 813.22 331.38 859.17 331.38 859.17 222.89 900.04 222.89 900.04 189.61 772.35 189.61 772.35 222.89"/>
  <rect class="cls-1" x="926.09" y="189.61" width="45.53" height="141.77"/>
  <path class="cls-1" d="m1096.24,295.93c-6.85.21-16.06.31-27.64.31-4.95,0-8.68-.99-11.22-2.98-2.54-1.98-4.31-5.48-5.29-10.49-.99-5-1.48-12.43-1.48-22.29s.49-17.29,1.48-22.3c.99-4.99,2.75-8.49,5.29-10.48,2.54-1.98,6.28-2.98,11.22-2.98l37.27.2c1.69.14,4.16.21,7.41.21l3.39-32.47c-7.77-2.05-14.96-3.49-21.6-4.32-6.64-.81-15.46-1.23-26.47-1.23-16.38,0-29.37,2.36-38.96,7.09-9.6,4.72-16.56,12.4-20.86,23.01-4.31,10.61-6.46,25.03-6.46,43.25s2.15,32.64,6.46,43.25c4.31,10.61,11.26,18.29,20.86,23.01,9.6,4.72,22.59,7.09,38.96,7.09,11.44,0,20.97-.52,28.59-1.55,7.62-1.02,15.17-2.77,22.66-5.24l-3.39-32.47c-6.64.69-13.38,1.13-20.22,1.34Z"/>
  <path class="cls-1" d="m1245.43,314.12c-4.94,0-8.4-.99-10.38-2.98s-2.96-5.38-2.96-10.18v-111.36h-21.18v114.24c0,18.64,10.38,27.94,31.13,27.94,23.86,0,42.64-.62,56.33-1.85l-1.06-15.82h-51.88Z"/>
  <path class="cls-1" d="m1397.26,191.14c-1.41-1.02-3.04-1.54-4.87-1.54h-21.6c-1.98,0-3.64.48-4.97,1.44-1.34.96-2.3,2.33-2.86,4.11l-45.74,136.23h21.6l13.56-42.73h58.23l13.56,42.73h21.81l-45.95-136.23c-.42-1.65-1.34-2.98-2.75-4.01Zm-39.17,79.63l17.15-53.83,3.39-11.51h5.72l3.6,11.51,16.94,53.83h-46.8Z"/>
  <path class="cls-1" d="m1551.21,258.23v-.82c8.61-.82,14.89-3.87,18.85-9.15,3.95-5.27,5.93-13.04,5.93-23.32,0-9.72-1.55-17.25-4.66-22.6-3.1-5.35-8.15-9.08-15.14-11.2-6.99-2.12-16.69-3.18-29.11-3.18s-21.14.1-27.85.31c-6.71.21-13.66.65-20.86,1.34v141.77c8.05.68,15.85,1.13,23.4,1.34,7.55.2,18.11.31,31.66.31,11.72,0,20.93-1.06,27.64-3.18,6.71-2.12,11.61-5.86,14.72-11.2,3.1-5.35,4.66-12.88,4.66-22.61,0-11.77-2.22-20.78-6.67-27.02-4.45-6.23-11.96-9.82-22.55-10.78Zm-52.09-52.8h26.89c7.62,0,13.56.61,17.79,1.85,4.23,1.23,7.27,3.39,9.1,6.48,1.84,3.08,2.75,7.64,2.75,13.66s-.84,10.65-2.54,13.87c-1.69,3.22-4.44,5.49-8.26,6.79-3.81,1.3-9.18,1.94-16.09,1.94h-29.65v-44.58Zm57.28,101.5c-1.77,3.29-4.66,5.55-8.68,6.79-4.02,1.23-9.85,1.85-17.47,1.85-15.11,0-25.48-.07-31.13-.21v-49.52h29.86c7.76.14,13.8.96,18.1,2.47,4.31,1.51,7.38,4.15,9.22,7.91,1.83,3.77,2.75,9.22,2.75,16.34,0,6.3-.89,11.1-2.65,14.38Z"/>
  <path class="cls-1" d="m1684.2,254.53l-29.01-7.81c-6.5-1.65-11.05-3.9-13.66-6.78-2.61-2.88-3.92-7.82-3.92-14.8,0-6.16.88-10.61,2.65-13.35,1.76-2.74,4.44-4.48,8.04-5.24,3.6-.75,9.22-1.13,16.84-1.13,9.6,0,21.88.28,36.85.82l5.08.2,1.27-15c-12.15-2.88-26.83-4.32-44.05-4.32-12.14,0-21.53.89-28.17,2.67-6.64,1.79-11.61,5.35-14.93,10.69-3.32,5.34-4.97,13.35-4.97,24.04s2.22,19.9,6.67,26.41c4.44,6.51,11.89,11.13,22.34,13.87l29.65,8.02c4.37,1.09,7.76,2.36,10.16,3.8,2.4,1.44,4.2,3.53,5.4,6.27,1.2,2.74,1.8,6.65,1.8,11.71,0,5.89-.81,10.32-2.44,13.25-1.63,2.95-4.34,4.93-8.15,5.96-3.81,1.03-9.53,1.61-17.15,1.75-7.91,0-22.88-.34-44.9-1.02l-1.48,15.2c15.11,2.74,30.42,4.12,45.95,4.12,12.42,0,22.17-1.03,29.22-3.09,7.06-2.05,12.25-5.85,15.56-11.41,3.32-5.55,4.98-13.73,4.98-24.55s-2.23-19.86-6.67-26.3c-4.45-6.44-12.11-11.1-22.98-13.98Z"/>
  <path class="cls-1" d="m85.58,98.89c-3.96,3.85-5.95,8.9-5.95,15.15v294.58c0,13.94,6.97,20.91,20.91,20.91h52.28v-22.71h-34.98c-1.68,0-3.01-.55-3.96-1.62-.96-1.08-1.44-2.47-1.44-4.15V121.61c0-1.68.48-3.07,1.44-4.15.96-1.08,2.28-1.62,3.96-1.62h34.98v-22.72h-52.28c-6.01,0-11,1.93-14.96,5.77Z"/>
  <path class="cls-1" d="m1830.11,98.89c-3.97-3.84-8.95-5.77-14.96-5.77h-52.28v22.72h34.98c1.68,0,3.01.54,3.96,1.62.96,1.08,1.44,2.47,1.44,4.15v279.45c0,1.67-.48,3.06-1.44,4.15-.96,1.08-2.28,1.62-3.96,1.62h-34.98v22.71h52.28c13.94,0,20.91-6.98,20.91-20.91V114.04c0-6.25-1.98-11.3-5.95-15.15Z"/>
</svg>