<svg height="60" viewBox="0 0 300 60" width="300" xmlns="http://www.w3.org/2000/svg"><g fill="#0f0f10" fill-rule="nonzero"><g transform="translate(87.017 18)"><path d="m12.672026.73885441c-1.1210491-.42560738-2.6336568-.63841107-4.53782295-.63841107-1.25554097 0-2.33062453.0059585-3.2269531.0170243-.89632857.011917-1.72541121.03915588-2.48724793.08427026-.76183673.04511438-1.5687878.11236034-2.42000202.20173789v23.19304841h3.36144494v-9.1386416c.7303418.0876751 1.53133437.1540699 2.40297773.1974818.88526278.0451144 1.80968142.067246 2.77325591.067246 1.76967432 0 3.18779722-.2068452 4.25181502-.622238 1.0640178-.4145416 1.831813-1.1542472 2.3025344-2.2182656.4707215-1.0640185.7056566-2.54853702.7056566-4.45355564s-.2408936-3.41677602-.7226808-4.47057989c-.4817873-1.05295265-1.2827799-1.79265827-2.4029778-2.21826565zm-.6724592 9.44507889c-.2689837.6503281-.7175736 1.0980671-1.3440672 1.3449193-.6273449.2468523-1.47941035.3813442-2.55449391.4034758h-4.73956075v-9.01010815c1.33810875-.02042915 2.91796233-.03149494 4.73956075-.03149494 1.07593477 0 1.92714901.12938464 2.55449391.38645149.6273448.25791807 1.0759347.71161554 1.3440672 1.3610924.2689837.65032807.4034755 1.57985458.4034755 2.79028196s-.1344918 2.10675652-.4034755 2.75623334z"/><path d="m25.4444953 20.805391c-.7397051 0-1.2887383-.1736478-1.6470995-.5209434s-.5379674-.8793048-.5379674-1.5968789v-18.28494412h-3.3273963v18.78971452c0 1.2776733.3694269 2.3357333 1.1091321 3.1767334.7397052.8410002 1.9603463 1.2606491 3.663626 1.2606491 1.545805 0 3.0924612-.011917 4.6382662-.0340486 1.5458051-.0221316 3.0694785-.0893776 4.5710204-.2017379l-.1676892-2.5885441h-8.3027435z"/><path d="m47.6288402.65458415c-.2238693-.16768931-.4817872-.25195957-.7729025-.25195957h-3.4286908c-.2911153 0-.5490332.08427026-.7729025.25195957-.2238694.1676893-.381344.38645149-.4707215.65543536l-7.327252 22.28565349h3.4618882l2.1876206-7.059124h9.2382279l2.1876205 7.059124h3.4959368l-7.327252-22.28565349c-.0902287-.26898387-.2468521-.48774606-.4707215-.65543536zm-6.2589781 13.09253415 2.7289928-8.80666787c.111509-.33622982.2128035-.67245965.302181-1.00868948s.178755-.64947686.2689837-.94144352h.9414429c.0893775.29111545.178755.60521369.2689837.94144352.0893775.33622983.178755.67245966.2689837 1.00868948l2.7289928 8.80666787z"/><path d="m68.3678234 11.0581309-4.6723148-1.24362478c-1.0086889-.24600107-1.736477-.61032098-2.1850669-1.09210853s-.6724593-1.31597801-.6724593-2.50427381c0-.78396879.0842702-1.40024827.2519594-1.84883845.1676892-.44773896.4315656-.77290299.7899268-.97464089s.8180169-.32431282 1.3781158-.3694272c.560099-.04426317 1.2325582-.06724597 2.0165265-.06724597 1.1201979 0 2.2795517.01191701 3.4789125.03404859 1.1985096.0229828 2.2795517.05618018 3.2439774.10044334l.2349351-2.38680617c-1.188295-.26898386-2.3816974-.44773896-3.580207-.53796772-1.1993608-.08937755-2.3587146-.14555773-3.4789125-.16768931-1.3449184 0-2.4991649.07320447-3.4618882.21876219-.9635745.14555773-1.7594598.42560738-2.3868046.84014896-.6273449.41454159-1.0921079 1.03677958-1.3951401 1.86586275-.3021811.82908317-.4536972 1.91608441-.4536972 3.26015251 0 1.74754389.3472954 3.14864337 1.0418862 4.20159599.6945908 1.0538039 1.8820346 1.8147899 3.5631827 2.2855116l4.8068067 1.3108708c.6494764.1566235 1.1814853.3532541 1.5968778.5881894.4145414.2349352.7167224.5881894.9073944 1.0589111.1898208.4707218.286008 1.1210499.286008 1.9492818 0 .9635751-.1344919 1.6973222-.4034756 2.2012414-.2689837.5039191-.7286393.8401489-1.3781158 1.0086894-.6503277.1676894-1.5347392.2519596-2.6557883.2519596h-1.8147888c-.6052133 0-1.3278941-.0170243-2.1680426-.0502217-.8401484-.0331973-1.9220417-.0723532-3.2439773-.1174676l-.2349352 2.4540521c1.6351825.3132471 3.0805443.5039192 4.3360853.5711651 1.2546897.067246 2.2633786.1012946 3.0252153.1012946 1.3891816 0 2.5885424-.0902288 3.59638-.2689839 1.0086889-.1787551 1.831813-.4928533 2.4702237-.9414435.6384107-.4477389 1.1091321-1.0870012 1.4113132-1.9160844.302181-.8290832.4536971-1.9160844.4536971-3.2601525 0-1.7926583-.3362296-3.2209966-1.0086888-4.2858663-.6724592-1.0640184-1.9050174-1.8207484-3.6976746-2.2684873z"/><path d="m82.8546381.40262458h-7.3613005v2.8907253h7.3613005v20.30232312h3.361445v-20.30232312h7.3944979v-2.8907253h-7.3944979z"/><path d="m97.206961.402625h3.361445v23.193048h-3.361445z"/><path d="m118.265149 20.9569073c-.997623.0561801-2.224222.0842702-3.68065.0842702-1.456427 0-2.566411-.2800496-3.394642-.8401489-.829083-.5600994-1.417272-1.4955844-1.764567-2.8064551-.347296-1.3108707-.520943-3.1094875-.520943-5.3949991 0-2.28551162.173647-4.0841284.520943-5.39499912.347295-1.31087072.935484-2.24635574 1.764567-2.80645505.829083-.5600993 1.960346-.84014896 3.394642-.84014896.91846 0 1.708387.01191701 2.369781.03404859.660542.0229828 1.282779.05022167 1.865861.08427026.582231.03319738 1.210427.08427026 1.882035.15151623l.336229-2.5212981c-.650327-.1787551-1.277672-.31920554-1.882034-.42050009-.605214-.10044334-1.266607-.17364781-1.983329-.21876219-.717574-.04426317-1.579854-.06724597-2.588543-.06724597-2.241247 0-4.039011.3864515-5.394995 1.1593545-1.355985.77290299-2.335732 2.03355204-2.940946 3.78109593-.605213 1.7475439-.907394 4.10115269-.907394 7.05912397 0 2.9579713.302181 5.3107288.907394 7.059124.605214 1.7475438 1.584961 3.0081929 2.940946 3.7810959 1.355133.772903 3.153748 1.1593545 5.394995 1.1593545 1.545805 0 2.840502-.0621387 3.882388-.1847136 1.041886-.1234262 2.055683-.3302713 3.04224-.622238l-.33623-2.5212981c-.941443.1344919-1.910976.229828-2.907748.2860082z"/><path d="m138.381895 20.805391c-.739705 0-1.288738-.1736478-1.647099-.5209434-.358362-.3472956-.537968-.8793048-.537968-1.5968789v-18.28494412h-3.327396v18.78971452c0 1.2776733.369427 2.3357333 1.109132 3.1767334.739705.8410002 1.960346 1.2606491 3.663626 1.2606491 1.545805 0 3.092461-.011917 4.638266-.0340486s3.069479-.0893776 4.571021-.2017379l-.16769-2.5885441h-8.302743z"/><path d="m160.56624.65458415c-.223869-.16768931-.481787-.25195957-.772903-.25195957h-3.42869c-.291116 0-.549034.08427026-.772903.25195957-.223869.1676893-.381344.38645149-.470721.65543536l-7.327252 22.28565349h3.461888l2.18762-7.059124h9.238228l2.187621 7.059124h3.495937l-7.327252-22.28565349c-.089378-.26898387-.246852-.48774606-.470722-.65543536zm-6.258127 13.09253415 2.728993-8.80666787c.111509-.33622982.212803-.67245965.302181-1.00868948.089377-.33622983.178755-.64947686.268984-.94144352h.941442c.089378.29111545.178755.60521369.268984.94144352.089378.33622983.178755.67245966.268984 1.00868948l2.728993 8.80666787z"/><path d="m183.086814 11.629296v-.134492c1.389182-.1344919 2.391912-.638411 3.008191-1.51260858.61628-.87419755.924419-2.13995389.924419-3.79812023s-.251959-2.82347934-.756729-3.69767689c-.503919-.87419756-1.322787-1.48451853-2.454051-1.83181415-1.132115-.34729562-2.660896-.52094343-4.588045-.52094343-1.188295 0-2.213156.0059585-3.075436.01702429-.863132.01191701-1.658166.03404859-2.386805.06724597-.728639.03319737-1.495584.09533605-2.302535.1847136v23.19304842c.896329.067246 1.758609.1225749 2.588543.1676893.829082.0442632 1.73137.0723533 2.70601.0842703.97464.0110658 2.14506.0170243 3.51211.0170243 1.792657 0 3.238019-.1736479 4.336085-.5209435s1.899059-.9576166 2.402978-1.8318141c.503918-.8741976.756729-2.1059053.756729-3.6976769 0-1.8599043-.347295-3.3163327-1.041886-4.3692854-.694591-1.0529526-1.905018-1.6581663-3.630429-1.8147898zm-4.033904-8.73942191c1.187444 0 2.128887.09533605 2.823478.28600816.694591.1906721 1.187444.55499202 1.478559 1.09210853.291115.53796772.436673 1.31087072.436673 2.3195602 0 1.00868949-.134492 1.7535024-.403476 2.30253591-.268983.54903352-.717573.92441923-1.344918 1.12615711-.627345.2017379-1.47941.3140983-2.554494.3362298h-4.739561v-7.45749242c.396666-.00255364.822273-.00425607 1.277673-.00425607h3.025215zm4.874053 16.77318671c-.291115.5600993-.772903.9414435-1.445362 1.1431814s-1.59177.3021813-2.756231.3021813c-1.882035 0-3.529135-.0110658-4.941299-.0340486-.011066 0-.022132 0-.034049 0v-8.2678489h4.772759c1.232558.0229828 2.196132.162582 2.890723.4205001.694591.257918 1.193402.6945912 1.495583 1.3108707s.453698 1.5075013.453698 2.6719631c0 1.0759355-.145558 1.8939528-.436673 2.4540521z"/><path d="m205.976816 13.3266182c-.672459-1.0640184-1.905017-1.8207484-3.697675-2.2684873l-4.672314-1.24362478c-1.008689-.24600107-1.736477-.61032098-2.185067-1.09210853s-.67246-1.31597801-.67246-2.50427381c0-.78396879.084271-1.40024827.25196-1.84883845.167689-.44773896.431565-.77290299.789927-.97464089.358361-.2017379.818016-.32431282 1.378115-.3694272.560099-.04426317 1.231707-.06724597 2.016527-.06724597 1.120198 0 2.279552.01191701 3.478912.03404859 1.19851.0229828 2.279552.05618018 3.243978.10044334l.234935-2.38680617c-1.188295-.26898386-2.381697-.44773896-3.580207-.53796772-1.199361-.08937755-2.358715-.14555773-3.478913-.16768931-1.344067 0-2.499165.07320447-3.461888.21876219-.963574.14555773-1.75946.42560738-2.386804.84014896-.627345.41454159-1.092108 1.03677958-1.395141 1.86586275-.302181.82908317-.453697 1.91608441-.453697 3.26015251 0 1.74754389.347296 3.14864337 1.041886 4.20159599.694591 1.0538039 1.882035 1.8147899 3.563183 2.2855116l4.806807 1.3108708c.649476.1566235 1.181485.3532541 1.596878.5881894.414541.2349352.716722.5881894.907394 1.0589111.189821.4707218.286008 1.1210499.286008 1.9492818 0 .9635751-.134492 1.6973222-.403475 2.2012414-.268984.5039191-.72864.8401489-1.378116 1.0086894-.650328.1676894-1.53474.2519596-2.655789.2519596h-1.814788c-.605214 0-1.327895-.0170243-2.168043-.0502217-.840148-.0331973-1.922042-.0723532-3.243977-.1174676l-.234935 2.4540521c1.635182.3132471 3.080544.5039192 4.336085.5711651 1.25469.067246 2.263378.1012946 3.025215.1012946 1.389182 0 2.588543-.0902288 3.59638-.2689839 1.008689-.1787551 1.831813-.4928533 2.470224-.9414435.63841-.4477389 1.109132-1.0870012 1.411313-1.9160844s.453697-1.9160844.453697-3.2601525c0-1.7926583-.336229-3.2209966-1.008689-4.2858663z"/></g><path d="m75.6689061 28.186744c-.0469154-2.2407679-.4926115-4.2167989-1.325918-5.8722416-1.1695334-2.3234283-3.0807765-3.8224863-5.682346-4.458078-2.3189601-.5663356-4.8747312-.3663868-6.8418261-.1295758-7.8661451.9472438-15.8864408 1.8084761-23.6442338 2.6417826l-2.0910855.2245236c-3.3421622.3585676-6.7971447.7305395-10.10803 1.8609767-1.9469883.6646346-3.6828573 1.5515586-5.1606917 2.6361975-1.7213476 1.2633641-3.0427974 2.7657733-3.9286045 4.4647802-.1519164.2904285-.2982477.5976126-.4356428.9103818-1.0622982 2.417259-1.5794844 5.1953196-1.5202816 8.0370512-1.9123602-1.1025114-3.2148205-2.6909321-4.0637655-4.0928083-1.31698168-2.1748629-2.11230905-4.8043582-2.2977365-7.6014084-.18542745-2.789231.25133239-5.4801631 1.26224709-7.7801337.11393735-.2602686.23569391-.5138351.36080161-.7539971 1.7861355-3.4259397 5.5382488-5.1271807 7.6170469-5.8364966 3.0349781-1.0366064 6.3436294-1.3918229 9.5439284-1.735869l2.0899685-.2245236c7.7656122-.83330645 15.7959612-1.6956558 23.6777448-2.6451337 3.3242897-.40101479 6.636292-.45686643 8.7139731 1.5549097-.0647879.21000217-.0994159.4322917-.0994159.6624005 0 1.2387894 1.0075636 2.246353 2.246353 2.246353s2.246353-1.0075636 2.246353-2.246353c0-1.23878944-1.0075636-2.24635305-2.246353-2.24635305-.0134044 0-.0256918 0-.0390961 0-1.1941081-1.28347072-2.7691244-2.13241567-4.7004742-2.52784529-2.2150761-.45351533-4.6010582-.25915162-6.432992-.03797912-7.8661452.94724384-15.887558 1.80847615-23.6442339 2.64178264l-2.0899684.2245236c-3.3421623.35856753-6.7971448.73053947-10.1080301 1.86097669-1.9469882.66463453-3.6828572 1.55155863-5.1606917 2.63619743-1.7213476 1.2633642-3.04279739 2.7657733-3.92860442 4.4647803-.15191647.2915455-.29824777.5976125-.4356428.9103817-2.40943981 5.4823971-1.9291157 12.6302902 1.19299106 17.7876308 2.43289746 4.015733 6.21852176 6.3938959 10.66096126 6.6954947.4959626.033511 1.0019785.0502665 1.5113455.0502665 1.6621448 0 3.3645028-.1776082 4.9171785-.5171862 2.5501859-.5585164 4.5831857-1.5079943 6.0442646-2.8227419 1.157246-1.0421917 1.9872014-2.2765129 2.789231-3.470621.818785-1.2186829 1.5928888-2.3703437 2.6518359-3.230459.7584653-.6154851 1.4130465-.919318 1.9514564-.9014455h.0379791.0379791c.5741549-.0145214 1.2555449.3239396 2.0296486 1.0064466.4356428.3842593.8400087.780806 1.2298532 1.1650652 1.5281009 1.5024092 3.1075853 3.0562019 6.0788926 3.1466815 3.2349271.0982989 6.4542157-.6702197 9.3071176-2.2217783 3.1008831-1.6856025 5.4768119-4.6580269 6.873103-8.5944505.7216032-2.0341168 1.2432575-4.0224353 1.5593778-5.9280933.5920274.0413302 1.1762355.1206396 1.7314009.2558006 1.8754981.4579834 3.1366281 1.4409723 3.9677006 3.0941809.6568153 1.3046943 1.0097976 2.9031683 1.0477768 4.7518576.0726071 3.505249-.9148499 7.0685838-1.7559756 9.4411615-1.1941081 3.3667369-3.0975321 5.7795279-5.6588883 7.1724678-2.4463019 1.3303861-5.2076071 1.9883184-7.9789655 1.905658-1.9481053-.0592027-2.8942321-.9896911-4.3262682-2.3971525-.4155362-.408834-.8455938-.8310724-1.3337372-1.2622471-1.2711833-1.1215009-2.5434837-1.6800173-3.7856242-1.6599107-.031277 0-.0636709-.0011171-.0949478-.0011171-1.156129 0-2.3189602.4870263-3.5499304 1.4867707-1.36278 1.1069796-2.2832151 2.4775788-3.1734902 3.8023798-.7461779 1.1114476-1.4510257 2.1603415-2.3681096 2.9858287-2.3837481 2.1458201-7.0160832 2.8640722-10.548141 2.6250272-3.4103012-.2312258-5.7236762-1.8810833-7.212681-3.5510474.067022-.2133533.1038841-.4401109.1038841-.6758049 0-1.2387894-1.0075636-2.246353-2.246353-2.246353-1.2387895 0-2.2463531 1.0075636-2.2463531 2.246353 0 1.2387895 1.0075636 2.2463531 2.2463531 2.2463531h.0413302c2.3759288 2.7635392 5.5069718 4.3430236 9.1373285 4.5887708.4959626.033511 1.0019785.0502665 1.5113454.0502665 1.6621449 0 3.3633859-.1776082 4.9171785-.5171862 2.550186-.5585164 4.5831857-1.5079943 6.0442647-2.822742 1.158363-1.0421916 1.9872014-2.2765129 2.7892309-3.470621.8187851-1.2186828 1.5928888-2.3703436 2.651836-3.2304589.7584653-.6154851 1.4130465-.9170839 1.9514563-.9014455h.0379791.0379792c.5730378-.0156384 1.2555448.3239395 2.0296486 1.0064466.4356428.3842593.8388917.7808059 1.2298531 1.1650652 1.528101 1.5024092 3.1075854 3.0562019 6.0788927 3.1466815 3.2360441.0982989 6.4542157-.6702197 9.3071175-2.2217783 3.0997661-1.6856025 5.476812-4.6580269 6.873103-8.5944506.9148499-2.5781117 1.9872014-6.4698541 1.905658-10.3694157zm-19.0387075 4.1788198c-2.4463019 1.3303861-5.2076071 1.9883184-7.9789655 1.905658-1.9481053-.0592027-2.8942321-.9896911-4.3262682-2.3971524-.4155362-.4088341-.8455938-.8310725-1.3337372-1.2622471-1.2711833-1.121501-2.5434837-1.6811344-3.7856242-1.6599108-1.190757-.0290429-2.380397.4591005-3.6459952 1.4856536-1.36278 1.1069796-2.2832151 2.4775789-3.1734902 3.8023798-.746178 1.1114477-1.4510257 2.1603415-2.3681096 2.9858287-2.3837481 2.1458201-7.0149662 2.8640722-10.548141 2.6250272-.6635175-.0446813-1.2845878-.1440972-1.868796-.2859604-.2345768-2.8506678.1943638-5.6633565 1.2421406-8.0493386.1139373-.2602686.2356939-.5138351.3608016-.7539971 1.7861354-3.4248227 5.5382487-5.1271807 7.6159298-5.8364966 3.0349782-1.0366064 6.3436294-1.3918229 9.5439285-1.735869l2.0899684-.2245236c7.7656122-.8333065 15.7948442-1.6956558 23.6777448-2.6451337.475856-.0569687.9885741-.1117033 1.5213988-.1530335-.2960137 1.6152295-.7528802 3.299715-1.3650142 5.0255307-1.1941081 3.3667369-3.097532 5.7795278-5.6588883 7.1724678z"/></g></svg>