<svg height="512" viewBox="0 0 512 512" width="512" xmlns="http://www.w3.org/2000/svg"><g fill="none" transform="translate(4 4)"><circle cx="252" cy="252" fill="#e2e2e2" r="252"/><path d="m417.784024 243.387429c-.223013-10.651552-2.341642-20.04467-6.302788-27.913862-5.559409-11.044481-14.644556-18.170295-27.011188-21.191597-11.023241-2.692092-23.17217-1.74163-32.522809-.615942-37.391939 4.502749-75.516636 8.596641-112.393519 12.557786l-9.940032 1.067279c-15.887061 1.704461-32.310416 3.47264-48.0488 8.846204-9.255063 3.159359-17.506564 7.375377-24.531491 12.531238-8.182473 6.005436-14.464021 13.14718-18.67473 21.223456-.722139 1.38056-1.417729 2.840768-2.07084 4.327525-5.049664 11.490507-7.508122 24.696095-7.226701 38.204345-9.090457-5.240819-15.281737-12.79142-19.317221-19.455278-6.260309-10.338271-10.0409193-22.837649-10.9223538-36.133504-.8814345-13.258687 1.1947158-26.050107 6.0001268-36.98308.541604-1.237195 1.120377-2.44253 1.71508-3.584147 8.490444-16.285299 26.326218-24.372195 36.207843-27.743947 14.426852-4.927538 30.154617-6.616069 45.367327-8.251501l9.934723-1.06728c36.914052-3.961145 75.086538-8.060346 112.552814-12.573716 15.802103-1.906235 31.545797-2.171727 41.422112 7.391306-.307972.998251-.472577 2.054911-.472577 3.148739 0 5.88862 4.789482 10.678101 10.678101 10.678101 5.88862 0 10.678101-4.789481 10.678101-10.678101 0-5.888619-4.789481-10.678101-10.678101-10.678101-.063718 0-.122126 0-.185844 0-5.676226-6.101013-13.16311-10.136497-22.343834-12.016182-10.529425-2.155798-21.871257-1.231885-30.579405-.180535-37.391939 4.50275-75.521946 8.596641-112.393519 12.557787l-9.934723 1.067279c-15.88706 1.704461-32.310415 3.472639-48.0488 8.846204-9.255062 3.159359-17.506563 7.375377-24.53149 12.531237-8.182473 6.005437-14.4640215 13.14718-18.6747297 21.223456-.7221391 1.38587-1.417729 2.840768-2.0708401 4.327525-11.4533386 26.060726-9.1701047 60.038433 5.670916 84.553994 11.5648458 19.088898 29.5599148 30.393561 50.6771738 31.82722 2.357572.159295 4.762932.238943 7.184222.238943 7.901052 0 15.993258-.844266 23.373944-2.458459 12.122379-2.654923 21.7863-7.168293 28.731579-13.417982 5.501001-4.954087 9.446217-10.821467 13.258686-16.497693 3.892118-5.793042 7.571841-11.267494 12.605576-15.356076 3.605385-2.925725 6.716955-4.370003 9.276301-4.285046h.180535.180535c2.729261-.069028 5.968267 1.539856 9.647991 4.784172 2.07084 1.826587 3.993004 3.711583 5.846141 5.53817 7.26387 7.141743 14.771992 14.527739 28.896184 14.957837 15.377315.467266 30.680292-3.185908 44.24164-10.561284 14.740134-8.012559 26.034177-22.14206 32.671485-40.853959 3.430161-9.66923 5.909859-19.120756 7.412545-28.179354 2.814219.196464 5.591269.573463 8.230262 1.215954 8.915232 2.177037 14.910049 6.849702 18.860575 14.708275 3.122189 6.2019 4.800101 13.800291 4.980636 22.588086.34514 16.662298-4.348765 33.600708-8.347079 44.878822-5.676226 16.003877-14.724204 27.473145-26.899682 34.094524-11.628563 6.324027-24.754504 9.451526-37.928233 9.058598-9.260372-.281422-13.757812-4.704524-20.565035-11.394931-1.975262-1.943403-4.019553-3.950525-6.339956-6.000126-6.042605-5.331086-12.09052-7.986009-17.99507-7.890432-.148675 0-.302661-.00531-.451337-.00531-5.495691 0-11.023241 2.315093-16.874691 7.067406-6.478013 5.262058-10.853326 11.777239-15.085274 18.074717-3.546977 5.283297-6.89749 10.269243-11.256874 14.19322-11.331213 10.200214-33.351146 13.614446-50.14088 12.478139-16.210961-1.099139-27.207653-8.941782-34.285678-16.880002.318591-1.014181.493816-2.09208.493816-3.212457 0-5.88862-4.789482-10.678101-10.678101-10.678101-5.88862 0-10.678102 4.789481-10.678102 10.678101 0 5.888619 4.789482 10.678101 10.678102 10.678101h.196464c11.294043 13.13656 26.177543 20.644683 43.434543 21.812849 2.357572.159295 4.762933.238943 7.184223.238943 7.901051 0 15.987947-.844266 23.373943-2.458459 12.12238-2.654923 21.7863-7.168293 28.731579-13.417982 5.506311-4.954086 9.446217-10.821467 13.258687-16.497692 3.892117-5.793043 7.571841-11.267495 12.605575-15.356076 3.605386-2.925726 6.716956-4.359384 9.276302-4.285046h.180534.180535c2.723951-.074338 5.968268 1.539855 9.647991 4.784171 2.07084 1.826587 3.987695 3.711583 5.846141 5.53817 7.26387 7.141744 14.771993 14.52774 28.896184 14.957837 15.382625.467267 30.680293-3.185907 44.24164-10.561284 14.734824-8.012558 26.034177-22.14206 32.671485-40.853958 4.348764-12.255126 9.446217-30.754631 9.058598-49.291304zm-90.501022 19.864136c-11.628563 6.324027-24.754504 9.451526-37.928233 9.058597-9.260372-.281421-13.757812-4.704523-20.565035-11.39493-1.975263-1.943404-4.019553-3.950526-6.339956-6.000126-6.042605-5.331086-12.090521-7.991319-17.99507-7.890432-5.660296-.138056-11.315282 2.182347-17.331338 7.062096-6.478013 5.262057-10.853326 11.777239-15.085274 18.074717-3.546977 5.283297-6.89749 10.269243-11.256874 14.193219-11.331213 10.200215-33.345836 13.614446-50.14088 12.478139-3.154049-.212394-6.106323-.68497-8.883373-1.35932-1.115068-13.550728.923913-26.920922 5.904549-38.262754.541605-1.237194 1.120378-2.442529 1.715081-3.584146 8.490444-16.279989 26.326218-24.372195 36.202532-27.743947 14.426853-4.927538 30.154618-6.616069 45.367328-8.251502l9.934723-1.067279c36.914052-3.961145 75.081228-8.060347 112.552814-12.573716 2.261994-.270802 4.699214-.530985 7.23201-.727449-1.407109 7.678038-3.578836 15.685286-6.488632 23.888999-5.676226 16.003877-14.724204 27.473145-26.899682 34.094524z" fill="#191919"/></g></svg>