<svg fill="none" height="28" viewBox="0 0 143 28" width="143" xmlns="http://www.w3.org/2000/svg" xmlns:xlink="http://www.w3.org/1999/xlink"><clipPath id="a"><path d="m0 .091797h142.314v27.7593h-142.314z"/></clipPath><g clip-path="url(#a)" fill="#191919"><path d="m50.9352 23.646c-.8951 5.3784-12.6165 5.8831-13.2739-.1527.7685.0987 1.8782-.1914 2.5727.0478.5879.2022 1.0139 1.7239 3.2131 2.0341 4.0481.5694 5.4556-2.5202 5.0142-6.0837-.5741.3735-.7485 1.0278-1.3874 1.5356-2.4338 1.9353-7.2937 1.1281-8.732-1.7455-1.6714-3.3397-1.6498-10.55618 1.9893-12.67668 1.693-.98771 4.9339-.97691 6.5744.12347.747.50003.9291 1.23464 1.5572 1.67602v-2.15599l2.4724.00154zm-8.1147-15.17523c-2.9569.66979-3.0387 5.64543-2.5511 7.95723.9353 4.4339 7.627 4.5435 8.195-1.0988.3966-3.937-.8504-7.94491-5.6423-6.85997z"/><path d="m9.84626 1.04685 6.51274 20.90405c-.7285-.0803-1.6297.1358-2.3181.0046-1.2253-.2331-1.5433-4.5713-2.2933-5.7179l-7.15319.0478-1.65751 5.3645-2.9369.301 6.53279-20.42408c.56485-.932156 2.32113-.42132 3.31501-.48151zm.95684 12.59175-2.62361-8.93258-2.62361 8.93258h5.24872z"/><path d="m142.314 21.9529h-2.78v-1.8474c-3.011 3.5913-9.871 2.6792-9.902-2.6174-.029-5.3398 6.22-4.6191 9.887-5.0975.537-3.3351-1.846-4.79198-4.937-3.84902-1.017.3102-1.485 1.65132-1.746 1.71462-.693.1697-1.79-.1219-2.558-.0077.282-4.83056 8.563-5.65777 10.938-2.44153.375.50774 1.101 2.38283 1.101 2.90603v11.2383zm-2.778-7.3909c-1.63.1096-5.042-.0216-6.286.9692-1.651 1.3133-.769 3.9339 1.21 4.2487 3.401.5401 5.658-1.8689 5.077-5.2164z"/><path d="m95.6983 14.8702c-.2685 3.653 2.5465 5.8213 6.1237 4.7225 1.71-.5263 1.636-2.7687 4.374-1.9492-.298 4.7811-7.3602 5.8121-10.6489 3.3829-2.8459-2.1004-3.0496-7.5776-2.1066-10.7167 1.818-6.04817 11.0745-6.17318 12.6765.4831.145.6049.721 4.0789-.077 4.0789h-10.3417zm8.0267-2.1545c.071-6.11916-7.9943-6.18706-8.0267 0z"/><path d="m61.351 6.01474c7.0606-1.18217 9.3463 3.72244 8.7212 9.93116-.517 5.1376-5.0882 7.5174-9.8123 5.7889-5.8414-2.1375-5.5698-14.60425 1.0896-15.72006zm4.9154 3.41841c-2.5773-2.65756-6.8769-.94295-7.3059 2.81965-.4414 3.869.5494 8.7242 5.5682 7.3985 3.5403-.9352 3.6206-8.2767 1.7377-10.21815z"/><path d="m28.0907.0917969v19.2434031l.463.4615h4.7857v2.1559h-13.2754v-2.1559h5.5574v-17.54891h-5.2488v-2.1559931z"/><path d="m117.616 6.24976.154 3.69775c.697-3.66225 4.487-4.9864 7.839-3.974l.031 3.04494c-2.415-.61887-5.32-.64356-6.866 1.61735-.324.4738-1.158 2.4215-1.158 2.849v6.3121h4.939v2.1559h-10.805v-2.1575l3.395.0016v-11.39114l-3.415-.13427-.289-2.02173z"/><path d="m77.1324 6.29244 4.0589 12.58096 4.4679-12.32014 2.9369-.2994-5.5868 15.66754c-.9939-.0601-2.7486.4507-3.315-.4815l-5.2935-14.73849c-.1157-.88894 2.1282-.33952 2.7301-.40897z"/></g></svg>