<svg fill="none" height="24" viewBox="0 0 182 24" width="182" xmlns="http://www.w3.org/2000/svg" xmlns:xlink="http://www.w3.org/1999/xlink"><clipPath id="a"><path d="m0 0h182v23.3249h-182z"/></clipPath><g clip-path="url(#a)"><path clip-rule="evenodd" d="m4.27151 5.84135.01981 5.84145.29446-.496c1.07189-1.80526 3.10861-3.2629 5.20641-3.72592.69951-.15437 1.79451-.21537 2.57281-.14326 3.4081.3159 6.1976 2.65871 7.1396 5.99638.141.4999.1649.7885.1649 1.9934 0 1.2093-.0236 1.4927-.1667 2.0001-.8054 2.8562-2.974 4.9933-5.8556 5.7706-.8698.2346-2.5982.2914-3.5433.1165-2.29669-.4251-4.31679-1.7994-5.4903-3.7352l-.32228-.5316-.02056 2.0356-.02063 2.0358h-2.12504-2.12509v-.4189-.4188h.984377.984373l.71669-.7029.71668-.703v-9.2942-9.29414l-.6781-.66477-.6781-.664771h-1.02296-1.02296v-.418859-.41886h2.12587 2.12587zm144.03049 2.38985c0 4.9019.029 8.221.07 8.2058.039-.0139 2.056-1.6291 4.482-3.5894l4.412-3.56399-.207-.41515-.207-.41512h-.602-.603v-.41886-.41886h3.866 3.867v.41886.41886h-1.863-1.862l-2.948 2.37986c-1.622 1.309-3.219 2.5983-3.551 2.8653-.331.2669-.601.5069-.601.5331.001.0262.479.5811 1.064 1.2331.584.652 2.173 2.4254 3.531 3.9411l2.468 2.7557h1.881 1.881v.4188.4189h-3.867-3.866v-.4189-.4188l.677-.0006.677-.0007.261-.4843c.143-.2664.247-.5204.232-.5645-.016-.0441-1.293-1.489-2.838-3.2109l-2.808-3.1308-.365.2879c-.2.1584-.998.7981-1.773 1.4217l-1.408 1.1338v2.693 2.6931h-2.126-2.127v-.4189-.4188h.985.984l.717-.7029.717-.703v-9.2942-9.29414l-.679-.66477-.678-.664771h-1.023-1.023v-.418859-.41886h2.127 2.126zm-100.4994-2.65277.0204 1.99911 3.615.01981 3.6147.01981v.41807.41811h-2.843-2.843l-.7911.78191-.7911.78185.0004 2.8165c.0006 3.1539.065 3.8405.4628 4.9232.455 1.238 1.4005 2.489 2.5053 3.3136.5723.4271 1.8345 1.0292 2.5214 1.2024.2763.0697.7895.1465 1.1403.1708l.638.044v.4187.4186l-.6768-.04c-.8886-.0525-1.8262-.2961-2.6961-.7005-.9869-.4587-1.5871-.8762-2.3506-1.6344-1.0903-1.0831-1.7155-2.1656-2.1452-3.7149l-.207-.7473-.0253-6.4542-.0249-6.45424h.4274.4277zm-13.3717 1.89044c2.4606.51199 4.6994 2.33078 5.7024 4.63273.429.9843.6873 2.1615.6909 3.1483l.0013.4375-7.7127.0195-7.7128.0194.0211.3945c.0323.603.2946 1.5159.64 2.2274.9426 1.9421 2.5277 3.2558 4.7127 3.9059.6542.1946 2.2556.2677 3.0618.1396 1.3229-.2103 2.7158-.8623 3.6488-1.7082l.3318-.3006.3118.2981.3118.2981-.3709.3323c-1.0273.921-2.3627 1.5727-3.8319 1.8699-.6892.1394-2.2773.1608-2.9657.04-3.3913-.5953-6.0567-3.2161-6.647-6.536-.6286-3.5353 1.2541-7.10313 4.5648-8.65052 1.5982-.74702 3.428-.94525 5.2418-.56791zm83.3431-.00181c2.652.55135 4.935 2.50726 5.869 5.02814 1.254 3.3835.161 7.0671-2.734 9.2155-1.459 1.0829-3.019 1.5931-4.871 1.5931-1.058 0-1.572-.0713-2.492-.3455-2.01-.5996-3.853-2.1513-4.834-4.0716-1.361-2.6639-1.072-5.9484.732-8.3329 1.957-2.5867 5.112-3.75587 8.33-3.08674zm22.023.17714c0 .39751-.007.41068-.242.45694-.132.02618-.355.04757-.493.04757s-.581.08255-.985.18354c-2.65.66197-4.737 2.77915-5.373 5.45025-.094.3923-.126 1.2077-.155 3.8765l-.035 3.3798.566.5613.566.5614h1.142 1.143v.4188.4189h-3.828-3.827v-.4189-.4188h1.139 1.138l.563-.5502.562-.5503v-5.5979-5.59798l-.714-.70589-.713-.70589h-.988-.987v-.41886-.41886h2.126 2.127v2.03718 2.0372l.279-.457c.934-1.52619 2.288-2.68271 3.921-3.34678.95-.38674 1.688-.54804 2.932-.64124.114-.00848.136.05628.136.39922zm36.611-.22047c1.118.23243 2.251.79521 2.9 1.44085.224.2229.327.26975.599.27172l.329.00247v-.76158-.76157h.425.425v2.05623 2.05625l-.444-.0026-.445-.0027-.261-.5632c-.492-1.0621-1.479-2.06571-2.46-2.49896-.943-.41686-1.571-.53316-2.924-.54117-.754-.0045-1.417.03124-1.701.09169-2.439.52093-3.827 1.61589-3.827 3.02024 0 .6887.176 1.1801.581 1.6235.885.9699 2.33 1.4485 5.218 1.728 4.495.435 6.775 1.7123 7.134 3.9956.462 2.9425-2.838 5.0616-7.25 4.6541-1.863-.172-3.283-.6412-4.367-1.4435-.39-.2891-.46-.313-.908-.313h-.485v.7234.7235h-.426-.425v-2.0943-2.0943h.456c.408 0 .46.018.499.1714.089.3442.836 1.3485 1.353 1.8199 1.281 1.1663 2.907 1.6854 5.308 1.6956 1.3.0056 1.98-.0959 2.895-.4319 1.062-.3896 1.949-1.1067 2.311-1.87.17-.3569.207-.5401.206-1.0426-.001-.5138-.036-.6791-.22-1.051-.713-1.4353-2.66-2.2567-6.172-2.6031-3.029-.2989-4.428-.7328-5.493-1.7044-.772-.7034-1.063-1.3777-1.065-2.4635 0-.6897.14-1.1526.522-1.72171.724-1.07502 2.485-1.94914 4.465-2.216.764-.10312 2.514-.0456 3.247.10664zm-106.7056.07257c1.5204.41528 2.6452 1.46257 3.1544 2.9371.1692.4904.1712.5473.1945 6.1115l.0237 5.6166h1.3111 1.3114v.4188.4189h-1.7398-1.7398v-1.0721-1.0722l-.5217.5292c-.8992.9115-2.071 1.539-3.3605 1.7994-.3702.0748-.9914.1203-1.6403.1203-1.7316 0-3.0877-.3374-4.1492-1.0323-1.2155-.7961-1.7536-1.8736-1.681-3.3676.0457-.9389.3739-1.6116 1.1285-2.3127 1.1705-1.0876 2.8022-1.6301 5.8171-1.9339 2.3623-.2379 3.3466-.4561 3.9268-.8701.43-.3068.5095-.6181.4586-1.7926-.0588-1.3483-.3607-2.08933-1.1498-2.82364-.8279-.76985-1.8227-1.05948-3.4291-.99834-1.1942.04547-1.7609.17724-2.73.63431-1.231.58069-2.2001 1.72247-2.3151 2.72787l-.0394.3456h-.4153-.4152v-.2586c0-.3888.2717-1.1759.5624-1.62957.8942-1.39519 2.4813-2.3229 4.502-2.63187.5184-.07921 2.4804.01156 2.9357.13594zm16.7427.53818v.41886l-1.1019.0023-1.1018.00227-.4935.71634-.4941.71623 1.6045 5.69762c.8831 3.1337 1.6338 5.749 1.6686 5.8118.0479.0867.0946.0408.1935-.1904.0709-.1675.4165-.9386.7677-1.7135.3519-.7749 1.3594-3.0009 2.2399-4.9466.8801-1.9458 1.6518-3.6354 1.7142-3.7546.1061-.2013.1422-.2152.5128-.1939l.3988.0229 1.7941 3.9601c.9859 2.1781 2.0039 4.4228 2.2622 4.9883.2582.5654.5614 1.2337.6744 1.485.1754.3911.2142.435.2714.3046.0371-.0837.7825-2.6982 1.6577-5.8098l1.5904-5.65754-.488-.71795-.4877-.71791-1.1019-.0026-1.1019-.00266v-.41886-.41886h3.8665 3.866v.41886.41886h-1.618-1.617l-.082.24751c-.077.23883-.839 2.93395-1.361 4.81685-.374 1.3531-2.244 7.9895-2.5571 9.0817l-.1153.3998h-.4038-.4044l-.8551-1.8849c-3.0634-6.7459-4.1722-9.1578-4.2116-9.1578-.024 0-.3285.6254-.6751 1.3899-.3469.7644-1.0684 2.3494-1.6029 3.5222-.5348 1.1728-1.3791 3.0317-1.8781 4.1308l-.9054 1.9984-.3995.0007c-.3837.0007-.4038-.0095-.4803-.2468-.0772-.2387-1.0214-3.5835-2.9081-10.3001-.4941-1.7593-.951-3.37851-1.0161-3.59845l-.1166-.39981h-1.6183-1.6183v-.41886-.41886h3.866 3.8661zm-75.6975.11902c-.7019.08266-1.72707.38637-2.35763.69853-1.85518.91845-3.11148 2.37397-3.79687 4.39917-.209.6175-.21906.7123-.21906 2.0562 0 1.3438.01016 1.4388.219 2.0562.82077 2.4258 2.55762 4.12 4.97182 4.8497.62144.1879.79354.206 1.99464.2102 1.1498.004 1.3919-.0174 1.933-.1707 2.6999-.7651 4.711-2.8938 5.2614-5.569.1789-.8697.1224-2.4655-.1159-3.2752-1.0117-3.437-4.3648-5.67015-7.8904-5.2551zm21.1452-.00371c-1.8525.19281-3.7354 1.2031-4.9004 2.62951-.8023.9823-1.4157 2.3979-1.5906 3.6713l-.055.3999h7.3068 7.3069l-.0394-.3237c-.1209-.9987-.505-2.0973-1.0355-2.9621-.4054-.6612-1.3246-1.63621-1.9702-2.08986-.5906-.41505-1.7674-.96972-2.3916-1.12712-.4448-.11225-1.7301-.28446-1.9716-.26419-.0638.00532-.3605.03518-.6594.06626zm83.3202.00821c-2.963.33815-5.347 2.3331-6.242 5.2236-.187.6053-.207.7856-.208 1.8877-.001 1.0224.026 1.3166.169 1.8278.737 2.6419 2.94 4.7073 5.598 5.248.681.1385 2.055.1591 2.733.041 1.515-.2644 2.934-1.0197 4.02-2.1399 2.68-2.7634 2.697-7.0348.04-9.8295-.315-.3319-.791-.75575-1.055-.94186-.591-.41505-1.768-.96972-2.392-1.12712-.443-.11173-1.727-.28413-1.972-.26465-.063.00509-.375.03876-.691.07493zm-43.2557 6.5163c-.722.3727-1.6248.5549-4.0752.8223-2.1029.2296-3.094.4578-4.1309.951-.9612.4573-1.4941.9356-1.8298 1.6429-.2208.4641-.2352.5473-.205 1.1621.0693 1.402.8893 2.3616 2.4452 2.8621.8613.2771 1.3899.3516 2.4842.3501 1.4156-.002 2.3516-.2369 3.3766-.8475.9987-.5951 1.9474-1.7303 2.1163-2.5318.0493-.2343.0739-1.2119.0614-2.4575l-.0207-2.0684z" fill="#000" fill-rule="evenodd"/></g></svg>