<svg fill="none" height="25" viewBox="0 0 151 25" width="151" xmlns="http://www.w3.org/2000/svg" xmlns:xlink="http://www.w3.org/1999/xlink"><clipPath id="a"><path d="m0 0h151v25h-151z"/></clipPath><g clip-path="url(#a)"><path clip-rule="evenodd" d="m6.50303.0830078c3.95577 0 5.89707 2.1527522 5.89707 6.1049622v12.49173c0 3.9521-1.9413 6.1045-5.89707 6.1045h-6.256936v-24.7011922zm12.36937 0v24.7011922h-3.9554v-24.7011922zm13.3396 0v3.5290722h-6.5081v7.44512h5.1062v3.5293h-5.1062v10.1977h-3.9558v-24.7011922zm12.3694 0v3.5290722h-6.5082v7.44512h5.106v3.5293h-5.106v10.1977h-3.9558v-24.7011922zm12.6928 0v3.5290722h-6.8318v6.88072h5.4299v3.5292h-5.4299v7.2336h6.8318v3.5286h-10.7874v-24.7011922zm8.4144 0c4.0992 0 5.8609 1.8704622 5.8609 5.6812322v1.94074c0 2.54072-.8272 4.19952-2.5889 5.01142 1.9776.8116 2.6248 2.682 2.6248 5.2578v3.8103c0 1.2006.0363 2.0828.4318 2.9997h-4.0278c-.2156-.6351-.3596-1.023-.3596-3.0344v-3.8818c0-2.294-.7906-3.1405-2.5887-3.1405h-1.3663v10.0567h-3.9555v-24.7011922zm19.2727 0v3.5290722h-6.8317v6.88072h5.4292v3.5292h-5.4292v7.2336h6.8317v3.5286h-10.7875v-24.7011922zm7.3712 0 4.0633 14.7853922v-14.7853922h3.5238v24.7011922h-4.0631l-4.9265-17.8908v17.8908h-3.5596v-24.7011922zm21.5035 0v3.5290722h-4.136v21.17212h-3.956v-21.17212h-4.135v-3.5290722zm5.68 0v24.7011922h-3.955v-24.7011922zm11.65 0 4.027 24.7011922h-3.991l-.683-4.4812h-4.855l-.683 4.4812h-3.632l4.028-24.7011922zm9.817 0v21.1725922h6.508v3.5286h-10.464v-24.7011922zm-134.55176 3.5290722h-2.2295v17.64352h2.2295c1.25837 0 2.0132-.6351 2.0132-2.3993v-12.84506c0-1.76416-.75483-2.39916-2.0132-2.39916zm121.64276.84671-1.907 12.49131h3.812zm-62.4938-.84671h-1.9054v7.58702h1.5459c1.4744 0 2.3733-.6354 2.3733-2.61197v-2.43445c0-1.76476-.6111-2.5406-2.0138-2.5406zm83.6508-3.5290722c.999 0 1.737.7440972 1.737 1.7556322 0 1.01154-.738 1.75565-1.737 1.75565-1.001 0-1.74-.74411-1.74-1.75565 0-1.011535.739-1.7556322 1.74-1.7556322zm0 .2478872c-.856 0-1.482.644708-1.482 1.507745 0 .86305.626 1.5076 1.482 1.5076.854 0 1.48-.64455 1.48-1.5076 0-.863037-.626-1.507745-1.48-1.507745zm.023.446369c.385 0 .552.193339.552.555466v.04955c0 .25803-.085.42652-.294.50091.213.0694.294.24304.294.49592v.2282c0 .10923.006.20846.055.29272h-.287c-.03-.06941-.041-.12909-.041-.29272v-.2282c0-.27758-.136-.35698-.368-.35698h-.188v.8779h-.272v-2.122766zm-.014.248036h-.263v.7438h.228c.207 0 .324-.07924.324-.32728v-.07924c0-.21834-.077-.33728-.289-.33728z" fill="#191919" fill-rule="evenodd"/></g></svg>