<svg fill="none" height="27" viewBox="0 0 123 27" width="123" xmlns="http://www.w3.org/2000/svg" xmlns:xlink="http://www.w3.org/1999/xlink"><clipPath id="a"><path d="m0 0h123v26.9672h-123z"/></clipPath><g clip-path="url(#a)" fill="#000"><path d="m20.7784 7.06824h-4.1505c-2.7873-4.53579-9.39378-4.29282-12.00346.33217-3.01489 5.34469 1.45401 11.86659 7.54606 10.69319 2.4836-.4782 4.6073-2.4682 5.3024-4.8795h-5.6107v-3.0733h9.6844v11.2937h-3.2279v-3.304c-4.9079 6.109-14.48546 4.0983-17.46037-2.868-1.9338-4.5266-.515168-9.89816 3.40165-12.83616 5.73222-4.29974 13.88722-1.927654 16.51842 4.6419z"/><path d="m114.008 0v2.84265h-2.114c-.139 0-.718.20146-.848.30526-.123.09765-.42.60821-.42.732v2.18985h5.303v-3.38089h3.536v3.38089h3.535v3.07333h-3.535v8.10581c0 .1561.249.6474.38.772.168.1592.674.3422.887.3422h2.268v3.0733h-3.497c-1.886 0-3.574-1.3848-3.574-3.3424v-8.95091h-5.303v12.29251h-3.536v-12.29251h-2.997v-3.07333h2.997v-2.57353c0-1.7485 1.757-3.49546109 3.497-3.49546109h3.421z"/><path d="m48.2168 14.9818h-12.2971c.8634 3.5316 5.2908 4.7026 7.7244 1.9207h3.9584c-2.3937 5.8345-10.5118 6.578-14.0196 1.2995-2.9895-4.4981-.7043-10.74936 4.4897-12.17031 5.6722-1.55242 10.9585 3.18098 10.145 8.95011zm-3.7661-2.9196c-1.3687-3.99367-7.0001-3.99751-8.3773 0z"/><path d="m95.0078 5.78452c6.5392-.62974 11.3432 6.05208 8.0492 11.88728-3.0805 5.4562-11.1249 5.437-14.1951-.0269-2.7804-4.9479.5159-11.31907 6.1459-11.86115zm.3829 3.30323c-5.6315.68356-4.8918 9.85275.9765 9.35065 5.8978-.5044 5.1148-10.08957-.9765-9.35065z"/><path d="m51.3294 6.06934 4.0345 9.75666 3.5362-9.75666h3.9199l-8.2242 20.89736h-3.9192l2.7535-6.7802-6.059-14.11716z"/><path d="m77.8076 11.7549h-3.7661c-2.5051-5.36703-10.0711-1.98998-8.278 3.55 1.2817 3.9622 6.6287 4.2336 8.278.4452h3.7661c-1.6762 6.2535-9.6974 8.1704-13.951 3.151-3.3502-3.9537-2.0007-10.11654 2.625-12.35945 4.6104-2.23521 10.0089.35139 11.326 5.21325z"/><path d="m87.7988 5.83868v3.53391h-2.1137c-1.567 0-3.1126 1.44401-3.1126 3.03491v9.0277h-3.5354v-15.36584h3.4586v1.76695c1.2148-1.80079 3.2617-2.10604 5.3031-1.99763z"/><path d="m32.2305 5.83916v3.5339h-2.1907c-1.3886 0-3.0356 1.35554-3.0356 2.80424v9.2576h-3.5354v-15.36507h3.4585v1.76695l.8858-.99727c1.2256-1.00343 2.9088-1.02111 4.4174-1.00035z"/></g></svg>