<svg fill="none" height="27" viewBox="0 0 234 27" width="234" xmlns="http://www.w3.org/2000/svg" xmlns:xlink="http://www.w3.org/1999/xlink"><clipPath id="a"><path d="m0 0h234v26.9529h-234z"/></clipPath><g clip-path="url(#a)" fill="#191919"><path d="m95.3845 0v26.9529h-95.3845v-26.9529zm-23.0119 3.47213h-3.502l-5.0026 18.02347h3.3351zm6.837 0h-3.3351l-5.1695 18.02347h3.2517zm-53.0286 15.37797v-6.5313c0-.2805-.8217-1.6492-1.0853-1.9007-1.9361-1.84948-5.7308-1.1577-6.8361 1.3181-1.5516-3.04511-5.5407-3.08483-7.5862-.4931l-.0016-1.65336h-4.7524c-.37955.25569-.33033 2.27226-.17768 2.49076l1.5958.1539.00167 6.5197-1.59747.2499c-.15265.2177-.20271 2.2359.17768 2.4908h7.0873v-2.6455h-2.3349v-4.3815c0-.1945.3912-1.4051.5255-1.6285.6048-1.0071 2.5476-1.1949 3.3134-.3128.0918.1059.4964.8821.4964.9499v8.02h5.0026v-2.6454h-1.5007v-5.0436c0-.0438.2928-.6926.3587-.8018.629-1.0418 2.2815-1.4249 3.2325-.609.2352.2019.7449 1.3264.7449 1.5763v7.5235h5.0026v-2.6454h-1.6675zm8.1309-9.382c-4.0509.5437-5.851 4.9144-4.6757 8.519 1.8386 5.6368 11.8388 4.782 12.3927-1.5284.4321-4.9211-2.8796-7.64018-7.717-6.9906zm56.9025 9.8785c-.4972.1622-.991.2516-1.3055-.2755-.2019-1.9934.196-4.2541-.0701-6.2136-.5998-4.42045-6.837-3.93885-9.8092-2.3302l-.4872 2.7009 2.596.2838c.6448-.7555.035-1.4597 1.3214-1.6094 2.4984-.2905 3.134.542 2.9196 2.9781-2.8029-.4982-7.7287-.1572-7.5052 3.7146.1827 3.1759 4.1718 3.9611 6.3941 2.2102.5172-.4071.7007-1.0294 1.278-1.1287.1359 2.2367 3.0214 2.4618 4.5897 1.4911l.0792-1.8213zm-42.688-.4965 6.4241-7.281-.2427-1.90654-10.243-.04883c-.2203.05545-.2369.20108-.272.39137-.0851.4609-.3737 3.5723-.2619 3.7303l2.4166.307.5956-1.8064h3.4185c.0718.2872-.1184.331-.2485.4974-1.8044 2.3169-4.1476 4.4758-6.0054 6.782l.2311 1.885 10.5258.096.6674-4.1316-2.561-.3219-.6081 1.8064h-3.8356zm13.0067-9.25954h-3.5019v4.29884h3.5019zm0 7.60624h-3.5019v4.2988h3.5019z"/><path d="m154.583 19.1816v2.6454h-7.17v-2.6454c.433-.0737 1.648.2217 1.811-.2714-.038-2.3236.888-8.5711-3.36-6.97-.743.2797-1.62 1.4523-1.62 2.1978v5.0436h1.668v2.6454h-7.004v-2.6454h1.668v-7.1106c-.596-.0745-1.395.2226-1.835-.2483v-2.56269h5.503l.002 1.65329c1.582-1.71783 3.456-2.41209 5.76-1.66239 4.279 1.39269 2.28 6.30879 2.766 9.65839.163.4932 1.378.1978 1.811.2714z"/><path d="m176.595 9.25977v7.85453c0 .8498.692 2.024 1.624 2.192 4.218.7646 3.348-4.5727 3.357-7.1296-.17-.5131-1.673-.1813-2.145-.2715v-2.64543h5.837v9.92153h1.834v2.6455h-5.503l-.002-1.6533c-1.728 2.3103-5.805 2.7745-7.739.4832-.426-.5039-.93-1.7575-.93-2.3848v-6.3658h-1.668v-2.64551h5.336z"/><path d="m134.739 16.3697h-8.337c-.07 3.3365 4.615 4.1755 5.61.9781l3.062.5106c-.613 4.2698-6.007 5.2206-9.402 3.6161-4.916-2.3228-3.908-11.0552 1.389-12.30637 4.89-1.15518 8.864 2.17127 7.678 7.20077zm-3.668-2.1498c.409-3.7162-4.568-3.4142-4.669 0z"/><path d="m209.779 16.3707c-.09 3.3521 4.534 4.1548 5.611.9789l2.879.523c-.188 3.4522-3.863 4.5818-6.885 4.2657-8.648-.9036-6.779-15.07435 2.605-13.00067 3.217.71081 5.213 4.18627 3.878 7.23387h-8.088zm0-2.1498h4.669c.358-3.689-4.616-3.4208-4.669 0z"/><path d="m233.293 13.394-2.835.331-.188-1.7982c-1.147-.5627-4.322-.6462-3.62 1.3579.243.6951 4.103 1.1221 5.021 1.4697 1.106.4187 2.041 1.1833 2.249 2.3997 1.017 5.9322-7.929 5.7245-11.446 3.8254l.481-3.6177 2.833.3334.01 1.6434c1.082.4088 5.288.312 4.372-1.6045-.401-.8382-3.783-1.0285-4.807-1.3554-2.194-.7009-3.072-2.0389-2.703-4.3509.579-3.61033 7.608-3.61447 10.02-2.07783.636.40543.396 2.65953.614 3.44403z"/><path d="m162.754 5.45688v3.80313h4.502v2.64549h-4.502v6.3658c0 .0373.393.5445.452.5851 1.255.8514 2.714-.235 2.723-1.6567l2.594.8176c-.284 2.9922-2.429 4.3666-5.358 4.1449-5.841-.4411-3.683-6.3278-4.079-10.2584-.13-.1291-1.591.2474-1.835-.2474v-2.39722h1.834v-3.80313h3.669z"/><path d="m111.06 9.25977v2.64543c-.257.0762-1.303-.2184-1.164.2433l2.579 5.0493 1.914-5.0468-.995-.2458v-2.64543h5.837v2.64543l-1.307.0273-4.527 9.8132-2.755-.0819-4.601-9.4929c-.313-.4667-.992-.2135-1.483-.2648v-2.64551h6.503z"/><path d="m195.938 9.25979.002 1.98431c.791-.8043.866-1.80475 2.157-2.07617.867-.18204 3.286-.05709 3.506 1.00627.259 1.2462.163 2.7753.507 4.0455l-2.835.3319-.488-2.2053c-.47-.4055-1.347-.3856-1.844-.0248-.159.115-.67.887-.67.9888v5.8702h2.335v2.6455h-7.671v-2.6455h1.667v-7.1106c-.595-.0744-1.395.2226-1.834-.2482v-2.56274h5.169z"/><path d="m82.7552 18.9735c-.3137-.3301-.2753-1.5019-.0876-1.9032.4088-.8713 2.8329-.8465 3.6404-.547.6106 1.7038-2.3541 3.713-3.5536 2.4494z"/><path d="m34.8064 12.1085c3.0515-.619 4.1184 1.8651 3.6738 4.4701-.3195 1.8767-2.0788 3.0658-3.9124 2.3037-2.435-1.0129-2.2748-6.2641.2378-6.7738z"/></g></svg>