<svg fill="none" height="32" viewBox="0 0 211 32" width="211" xmlns="http://www.w3.org/2000/svg"><path d="m13.6262 22.6079c0-4.031-2.5915-5.7998-5.22398-7.4451-2.79705-1.6864-5.63524-3.2083-5.63524-6.95149 0-2.13891 1.80986-3.94878 3.86652-3.94878 1.80988 0 3.29069 1.234 4.319 4.85373.2468.86379.1234 1.52194.6993 1.52194.4113 0 .4113-.0823.4113-2.22121v-2.63252c-.0412-.94607-.0822-1.1106-.2468-1.27513-.5347-.53473-2.79706-1.234-4.52463-1.234-3.86656 0-6.992684 2.75593-6.992684 6.12885 0 3.53751 2.344594 5.38841 4.853724 6.99271.57587.3702 1.19286.7815 1.76871 1.1517 2.30349 1.4808 4.23678 3.2084 4.23678 6.2934 0 3.0849-1.89219 5.5118-4.60696 5.5118-2.42686 0-4.23673-1.8098-5.26506-6.8693-.08226-.4112-.08226-.6169-.575863-.6169-.246798 0-.370198.0411-.452464.4524-.1645331.905-.1234 2.6325-.1234 3.6197.041133 2.6737.2468 3.0439.740396 3.373.863801.5347 2.509131 1.0283 4.812591 1.0283 4.64806 0 7.93876-3.0439 7.93876-7.6919zm10.64-2.9616c.9872 0 .9872-.1233.9872-2.5502 0-4.1134-2.2212-6.499-5.1828-6.499-3.5375 0-6.9927 3.2906-6.9927 10.201 0 5.5941 2.6325 9.3784 7.1572 9.3784 1.9744 0 3.8666-1.1929 4.6481-3.0439.2468-.5758.4524-1.2751.4524-1.9332 0-.4114-.1234-.4936-.2879-.4936-.2879 0-.3702.5758-.6993 1.3985-.5758 1.4808-1.7687 2.3446-3.702 2.3446-2.8793 0-4.8537-3.1262-4.8537-8.021 0-.5347.2468-.7816.9461-.7816zm-8.3912-2.0566c0-3.3729 1.7276-6.0054 3.9488-6.0054 1.8098 0 3.1261 1.6453 3.1261 4.4835 0 1.1106-.1645 1.563-.5347 1.851-.2469.2056-1.1517.4113-2.5914.4936-.617.0411-1.3163.0822-2.139.0822-1.7275 0-1.8098-.1645-1.8098-.8638zm20.0322 2.0566c.9872 0 .9872-.1233.9872-2.5502 0-4.1134-2.2212-6.499-5.1828-6.499-3.5374 0-6.9926 3.2906-6.9926 10.201 0 5.5941 2.6325 9.3784 7.1571 9.3784 1.9745 0 3.8665-1.1929 4.6481-3.0439.2468-.5758.4525-1.2751.4525-1.9332 0-.4114-.1234-.4936-.288-.4936-.2879 0-.3702.5758-.6992 1.3985-.5759 1.4808-1.7688 2.3446-3.702 2.3446-2.8794 0-4.8538-3.1262-4.8538-8.021 0-.5347.2469-.7816.9461-.7816zm-8.3912-2.0566c0-3.3729 1.7276-6.0054 3.9488-6.0054 1.8099 0 3.1261 1.6453 3.1261 4.4835 0 1.1106-.1645 1.563-.5347 1.851-.2468.2056-1.1518.4113-2.5914.4936-.617.0411-1.3163.0822-2.1389.0822-1.7276 0-1.8099-.1645-1.8099-.8638zm21.7598-16.45329c0-.493597-.0822-.575863-.2056-.575863-.2057 0-.3291.123398-.8638.370194-.4936.246799-1.3163.617009-2.8794 1.192869-.4524.16453-.5758.2468-.5758.53473 0 .28794.2056.32906.8637.45247.9872.16453 1.1929.41133 1.1929 1.02833v7.44516c0 .1234-.0411.2056-.1645.2056s-.3702-.2468-.7815-.4936c-.4936-.3291-1.2341-.6992-2.3858-.6992-4.2778 0-6.9515 4.8537-6.9515 9.9953 0 5.7175 1.9744 9.5841 6.2523 9.5841 1.4808 0 2.3445-.5348 2.9204-1.0284.617-.5347.8639-1.0283 1.0695-1.0283s.2468.2879.4525 1.4397c.0822.4525.2879.617.617.617.4113 0 1.2751-.3702 2.0977-.7405.5348-.2467.905-.4112 1.1518-.5758.4525-.329.5347-.6581.5347-1.5631 0-.6581-.0822-.8638-.3702-.8638-.4525 0-.617 1.9333-1.6454 1.9333-.2056 0-.329-.2879-.329-1.5631zm-10.0365 18.83899c0-6.3345 2.468-8.3911 4.2367-8.3911.9872 0 1.8099.4113 2.4269 1.1517.5758.7404.9049 1.7276.9049 2.9204v10.1599c0 .9872-.4524 1.6865-1.0694 2.139-.6171.4525-1.4397.6581-2.2212.6581-2.8794 0-4.2779-2.7148-4.2779-8.5968zm33.4416 2.6325c0-1.1105-.247-1.1517-.6171-1.1517-.4109 0-.4109.5759-.8225 2.6737-.5756 2.8382-1.8513 5.2239-4.5658 5.2239-3.2084 0-6.4168-3.2084-6.4168-12.9981 0-8.96701 3.3729-12.09317 6.0466-12.09317 2.0567 0 3.5372 1.6042 4.5244 4.64806.617 1.89211.6994 2.01551 1.0695 2.01551s.3701-.0823.3701-1.93326c0-1.64531 0-2.67364-.0408-3.29064-.0408-.90493-.1647-1.02833-.3293-1.19286-.4525-.3702-2.55-1.234-5.018-1.234-5.9643 0-9.9131 5.42957-9.9131 13.57396 0 8.4734 4.2778 13.4917 9.9542 13.4917 1.8921 0 4.3598-.5759 5.183-1.2751.411-.288.5348-.4936.5348-1.2752zm2.6053 4.5247c0 1.1106-.2469 1.5219-1.7274 1.7276-.3293.0412-.6586.2468-.6586.4936 0 .3702.2885.4936.494.4936.4109 0 .9048-.1645 3.167-.1645 2.55 0 3.044.1645 3.3733.1645.2878 0 .4524-.2057.4524-.4936 0-.329-.3293-.3702-.7817-.4936-1.3573-.3702-1.8513-.3702-1.8513-1.3985v-26.32529c0-.493597-.0823-.575863-.2055-.575863-.2054 0-.3293.082266-.864.370194-.4525.246799-1.3158.617009-2.8793 1.192869-.4524.16453-.5756.2468-.5756.53473 0 .28794.2055.32906.8641.45247.9872.16453 1.1926.41133 1.1926 1.02833zm9.0364-14.6023c0-1.1106 0-1.6042-.6586-1.6042-.4109 0-.8226.0411-1.2335.0411-.6586 0-1.2757-.0411-1.9336-.0411-.6171 0-.864.288-.864.5759 0 .3702.2469.4936 1.0695.5759.9049.0822 1.1518.4113 1.1518 1.2339v12.1755c0 1.6865.6171 2.7559 1.3989 3.4552.8633.7404 2.0975.9871 3.2902.9871 2.4683 0 3.9488-1.5218 4.7713-2.2211.247-.2057.4117-.3291.5763-.3291.1647 0 .2878.0411.2878.5347v1.851c0 .2057.0415.4114.1646.4114.1647 0 .2878-.0412.4933-.1234.494-.2057 1.522-.6993 2.8793-1.234.5347-.2057.7817-.4114.7817-.617 0-.3291-.2054-.4114-1.1103-.4936-.7818-.0823-.9464-.4525-.9464-1.9333v-12.3399-1.5631c0-.8638-.2055-.9461-.6171-.9461-.6579 0-1.275.0411-1.9329.0411-.5763 0-1.1518-.0411-1.7274-.0411-.494 0-.6994.288-.6994.5348 0 .5758.2878.4936 1.3573.617 1.028.1233 1.1518.4936 1.1518 1.4396v11.1471c0 .8227-.3701 1.6042-.9048 2.2213-.8641.9048-2.1391 1.4807-3.3733 1.4807-1.9744 0-3.3725-1.234-3.3725-3.4552zm15.4383-11.599559c0-.287928-.0824-.370194-.2055-.370194-.2055 0-.2878.082266-.7402.329066-.494.246797-1.3165.616997-3.0032 1.233997-.4524.16453-.5755.2468-.5755.53473 0 .28794.2054.32906.864.45247.9872.16453 1.1927.41133 1.1927 1.35739v19.7851c0 2.5502-.0823 3.8665-.1238 4.5658 0 .2879-.164.946-.164 1.1929 0 .3702.164.5758.4524.5758.4525 0 .5756-.4113.7811-.8227.1646-.2879.3701-.5758.8641-.5758.3293 0 .6579.1234.987.2879.576.2879 1.193.6993 2.222.6993 4.647 0 7.691-4.1133 7.691-10.5302 0-4.6069-2.385-9.0492-5.882-9.0492-1.769 0-2.879 1.1106-3.661 1.3985-.123.0411-.247.0823-.37.0823-.2053 0-.3291-.1646-.3291-.6993zm7.5271 19.867359c0 5.7175-1.85 8.3912-4.812 8.3912-1.522 0-2.7151-1.0695-2.7151-3.2907v-11.1471c0-.4525.1646-.9461.4111-1.3574.453-.6993 1.235-1.234 2.263-1.234 2.714 0 4.853 2.0567 4.853 8.5969zm14.151-16.53557c0-.32906-.206-.49359-.535-.49359-.617 0-1.563.16453-3.209.16453-1.316 0-1.892-.16453-2.591-.16453-.37 0-.534.16453-.534.45247 0 .20566.164.49359.987.65812.452.08227.658.53474.987 1.68647 2.057 7.1983 5.388 17.9752 6.129 21.8829.247 1.2751.452 1.8921.822 1.8921.453 0 .7-.905.905-1.7687 1.645-6.9516 3.373-14.0264 5.306-20.97794.617-2.22122.7-2.50916 1.111-2.67369.617-.2468 1.111-.32906 1.111-.69926 0-.37021-.206-.45247-.658-.45247-.535 0-1.152.16453-1.892.16453-1.152 0-1.893-.16453-2.181-.16453-.37 0-.658.20567-.658.57586 0 .3702.329.45247 1.234.53473.741.08227.988.45247.988 1.1106 0 .90494-.247 1.97442-.453 2.8382l-2.344 9.37837c-1.276 5.1417-1.358 5.6353-1.605 5.6353-.206 0-.329-.2057-1.069-2.756l-3.826-13.36829c-.123-.41134-.411-1.35738-.411-1.76871 0-.45247.288-.90494.781-1.02833 1.358-.2468 1.605-.2468 1.605-.617zm18.032 15.38377c.987 0 .987-.1233.987-2.5502 0-4.1134-2.22-6.499-5.182-6.499-3.538 0-6.993 3.2906-6.993 10.201 0 5.5941 2.633 9.3784 7.158 9.3784 1.974 0 3.866-1.1929 4.647-3.0439.247-.5758.453-1.2751.453-1.9332 0-.4114-.124-.4936-.288-.4936-.288 0-.37.5758-.7 1.3985-.575 1.4808-1.768 2.3446-3.701 2.3446-2.88 0-4.854-3.1262-4.854-8.021 0-.5347.247-.7816.946-.7816zm-8.391-2.0566c0-3.3729 1.728-6.0054 3.949-6.0054 1.81 0 3.126 1.6453 3.126 4.4835 0 1.1106-.164 1.563-.535 1.851-.246.2056-1.151.4113-2.591.4936-.617.0411-1.317.0822-2.139.0822-1.727 0-1.81-.1645-1.81-.8638zm11.189 9.1316c0 1.6042-.288 1.9744-1.645 2.1389-.371.0412-.577.2879-.577.4936 0 .3291.206.4936.741.4936.37 0 .699-.1645 2.591-.1645 2.756 0 3.209.1645 3.456.1645.329 0 .575-.1234.575-.4114 0-.4112-.205-.3701-1.522-.5758-.987-.1645-1.151-.4936-1.151-1.4397v-11.3116c0-.9872.534-1.8921 1.316-2.5914s1.892-1.1106 2.961-1.1106c1.07 0 1.934.3291 2.551 1.0284.534.5758.823 1.3985.823 2.4268v11.5173c0 1.0695-.33 1.3163-1.44 1.4808-.494.0823-.782.2879-.782.5348 0 .329.165.4524.617.4524.453 0 .741-.1645 2.838-.1645 2.304 0 2.88.1645 3.044.1645.289 0 .576-.1234.576-.4114 0-.3701-.287-.4935-1.234-.5758-.822-.0823-1.152-.5759-1.152-1.9333v-11.3939c-.04-1.563-.617-2.7148-1.398-3.4551-.905-.8638-2.098-1.2341-3.291-1.2341-1.439 0-2.632.6993-3.537 1.3574-.905.6582-1.522 1.2752-1.892 1.2752-.124 0-.165-.0411-.206-.6993v-1.6864c0-.288-.123-.4936-.288-.4936-.123 0-.288.1645-.575.4113-.494.4113-1.317 1.0283-2.674 1.6453-.535.2468-.782.4114-.782.617 0 .288.165.3291.823.3702 1.069.0823 1.234.1645 1.234 1.3163zm18.565-13.4917c0-.617.123-.7404.535-.7404h1.85c.864 0 1.111-.2468 1.111-.7815 0-.4936-.288-.617-1.028-.617h-1.646c-.617 0-.822-.2469-.822-.905v-3.66084c0-.90492-.124-1.02833-.371-1.02833-.288 0-.288.20567-.699.98721-1.151 2.18008-2.056 3.37289-2.633 4.11336-.493.5758-.74.8638-.74 1.0694 0 .4936.288.4936.658.4936.329 0 .659 0 .906.0823.246.0822.411.2468.411.5758v13.8208c0 1.2751.287 2.1801.822 2.756.535.5346 1.317.7815 2.304.7815 3.002 0 3.455-3.4552 3.455-3.7843 0-.2468-.123-.329-.37-.329-.329 0-.576.617-.905 1.1928-.329.5759-.823 1.1929-1.605 1.1929-.74 0-1.233-.2468-1.233-1.6454zm7.185-.6993c0-1.1106 0-1.6042-.659-1.6042-.411 0-.822.0411-1.233.0411-.659 0-1.276-.0411-1.934-.0411-.617 0-.864.288-.864.5759 0 .3702.247.4936 1.07.5759.905.0822 1.152.4113 1.152 1.2339v12.1755c0 1.6865.617 2.7559 1.398 3.4552.864.7404 2.098.9871 3.291.9871 2.468 0 3.949-1.5218 4.772-2.2211.246-.2057.411-.3291.575-.3291.165 0 .288.0411.288.5347v1.851c0 .2057.042.4114.165.4114.164 0 .288-.0412.493-.1234.494-.2057 1.522-.6993 2.88-1.234.534-.2057.781-.4114.781-.617 0-.3291-.205-.4114-1.11-.4936-.782-.0823-.947-.4525-.947-1.9333v-12.3399-1.5631c0-.8638-.205-.9461-.617-.9461-.658 0-1.275.0411-1.933.0411-.575 0-1.152-.0411-1.727-.0411-.494 0-.7.288-.7.5348 0 .5758.288.4936 1.358.617 1.028.1233 1.152.4936 1.152 1.4396v11.1471c0 .8227-.37 1.6042-.905 2.2213-.864.9048-2.139 1.4807-3.373 1.4807-1.975 0-3.373-1.234-3.373-3.4552zm14.122 14.1087c0 1.8922-.206 2.0567-1.357 2.2212-.535.0823-.864.1646-.864.5758 0 .288.288.4114.782.4114.288 0 .74-.1645 2.632-.1645 2.468 0 2.839.1645 3.167.1645.741 0 .947-.0823.947-.4524 0-.288-.453-.3702-1.358-.5348-1.399-.2468-1.481-.7404-1.481-2.6325v-8.5557c0-.6993.206-1.8099.617-2.9616.412-1.1517 1.029-2.1389 1.892-2.1389.453 0 .453.6992.453 1.3574 0 .9049.329 1.6453 1.439 1.6453 1.07 0 1.522-.9461 1.522-2.2624 0-1.6864-.781-2.7147-2.139-2.7147-1.398 0-2.18.9049-2.755 1.7687-.576.8638-.823 1.7687-1.152 1.7687-.165 0-.165-.5347-.165-1.1518 0-.7403 0-1.3573-.04-1.7686-.042-.4114-.165-.617-.33-.617-.329 0-.494.2879-1.069.9049-.782.8226-1.563 1.1106-2.098 1.2751-.411.1234-.658.2468-.658.617 0 .2468.123.3291.411.3291 1.193 0 1.604.2879 1.604 1.7687zm18.106-6.9927c.988 0 .988-.1233.988-2.5502 0-4.1134-2.222-6.499-5.183-6.499-3.538 0-6.993 3.2906-6.993 10.201 0 5.5941 2.633 9.3784 7.157 9.3784 1.975 0 3.867-1.1929 4.648-3.0439.247-.5758.453-1.2751.453-1.9332 0-.4114-.124-.4936-.288-.4936-.288 0-.37.5758-.699 1.3985-.577 1.4808-1.769 2.3446-3.702 2.3446-2.879 0-4.854-3.1262-4.854-8.021 0-.5347.246-.7816.946-.7816zm-8.391-2.0566c0-3.3729 1.728-6.0054 3.949-6.0054 1.81 0 3.126 1.6453 3.126 4.4835 0 1.1106-.165 1.563-.535 1.851-.246.2056-1.152.4113-2.591.4936-.617.0411-1.316.0822-2.139.0822-1.728 0-1.81-.1645-1.81-.8638zm9.091-2.0567c0 3.085 1.933 4.3602 3.866 5.5119 1.892 1.1517 3.826 2.2212 3.826 4.8537 0 1.9333-1.234 3.2907-3.167 3.2907-1.522 0-2.468-1.1929-3.044-2.8794-.659-1.9743-.576-2.3857-.987-2.3857-.33 0-.453.3291-.453 2.4269 0 1.0283.041 1.7276.083 2.2212.081.8637.246 1.0283.493 1.1106.247.0822.494.1234.782.2057.575.1645 1.315.2879 2.467.2879 3.702 0 6.129-2.1801 6.129-5.8821 0-2.8793-1.974-4.3601-3.948-5.5941-2.016-1.2751-3.99-2.3034-3.99-4.2778 0-1.6043 1.316-2.8382 3.084-2.8382 1.276 0 1.893.8226 2.345 1.9332.617 1.5631.617 2.1801 1.028 2.1801.288 0 .371-.3291.412-.9872v-1.1517c0-.6993 0-1.2341-.041-1.6042-.041-.4114-.083-.6171-.206-.6993-.699-.4525-1.769-.6581-3.085-.6581-2.633 0-5.594 1.3574-5.594 4.8948z" fill="#191919"/></svg>