<svg fill="none" height="245" viewBox="0 0 1080 245" width="1080" xmlns="http://www.w3.org/2000/svg"><g fill="#191919"><path d="m197.016 124.965c-1.268-1.517-1.268-3.72 0-5.237 1.658-1.909 3.219-3.867 4.731-5.776 16.047-20.8032 20.73-39.5504 13.121-52.7665s-26.144-18.5514-52.092-15.0272c-2.439.3427-4.927.7343-7.463 1.2237-1.854.3427-3.756-.7342-4.39-2.5453-.829-2.4474-1.707-4.7969-2.683-7.0975-9.95-24.3273-23.802-37.7392-39.02-37.7392s-29.0702 13.4119-39.0204 37.7882c-.9268 2.3005-1.8047 4.6501-2.6827 7.0975-.6341 1.8111-2.4876 2.8879-4.3898 2.5453-2.5363-.4895-5.0239-.8811-7.4627-1.2237-25.9974-3.5733-44.4833 1.7621-52.09229 15.0271-7.609 13.2161-2.975315 31.9633 13.07189 52.7666 1.512 1.958 3.1216 3.916 4.78 5.874 1.2681 1.468 1.2681 3.622 0 5.041-1.6584 1.958-3.3168 3.916-4.78 5.874-16.047205 20.803-20.68089 39.55-13.07189 52.766 6.04817 10.573 19.07129 16.104 37.31329 16.104 4.6337 0 9.56-.342 14.8278-1.076 2.4388-.343 4.9263-.735 7.4627-1.224 1.8534-.343 3.7557.734 4.3898 2.545.8292 2.448 1.7071 4.797 2.6826 7.098 9.9502 24.327 23.8025 37.788 39.0207 37.788 15.218 0 29.07-13.412 39.02-37.788.927-2.301 1.805-4.65 2.683-7.098.634-1.811 2.487-2.888 4.39-2.545 2.536.489 5.024.881 7.462 1.224 5.268.734 10.194 1.076 14.828 1.076 18.193 0 31.217-5.531 37.313-16.104 7.609-13.216 2.976-31.963-13.12-52.766-1.463-1.909-3.073-3.867-4.731-5.776zm-32.728-67.108c4.78-.6363 9.267-.979 13.364-.979 13.609 0 23.169 3.5243 27.022 10.1813 4.975 8.7128.536 23.1526-12.194 39.6967-1.024 1.322-2.097 2.644-3.17 3.965-1.415 1.713-4 1.86-5.61.343-4.877-4.601-10.194-9.153-15.852-13.5588-4.243-3.3285-7.072-8.2233-7.804-13.5587-.975-7.1465-2.244-13.9992-3.804-20.5583-.488-2.2027.878-4.3564 3.121-4.748 1.659-.2937 3.366-.5385 4.975-.7832zm-34.29 100.687c-4.292 2.496-8.584 4.797-12.876 6.999-4.975 2.546-10.926 2.546-15.901 0-4.2924-2.202-8.5847-4.503-12.8769-6.999-4.2435-2.448-8.3407-4.993-12.3403-7.587-4.78-3.133-7.804-8.37-8.0967-14.097-.2439-4.748-.3902-9.594-.3902-14.489s.1463-9.741.3902-14.489c.2927-5.727 3.3167-10.9642 8.0967-14.0969 3.9996-2.5942 8.0968-5.1396 12.3403-7.587 4.2922-2.4963 8.5845-4.7969 12.8769-6.9996 4.975-2.5453 10.926-2.5453 15.901 0 4.292 2.2027 8.584 4.5033 12.876 6.9996 4.195 2.4474 8.341 4.9928 12.341 7.587 4.78 3.1327 7.804 8.3699 8.096 14.0969.244 4.748.391 9.594.391 14.489s-.147 9.741-.391 14.489c-.292 5.727-3.316 10.964-8.096 14.097-4 2.594-8.097 5.139-12.341 7.587zm16.633 11.405c-.537 2.937-1.171 5.825-1.805 8.664-.488 2.153-2.731 3.426-4.829 2.79-2.78-.832-5.56-1.762-8.389-2.741-3.122-1.077-3.561-5.385-.683-7.049l4.975-2.888 4.975-2.888c2.878-1.664 6.341.832 5.707 4.112zm-59.799 8.713c-2.829.979-5.6092 1.909-8.3894 2.741-2.0973.636-4.341-.637-4.8288-2.79-.634-2.839-1.2681-5.727-1.8047-8.664-.634-3.28 2.8778-5.776 5.7068-4.112l4.9751 2.888 4.9751 2.888c2.8778 1.664 2.4876 5.923-.6828 7.049zm-37.4108-47.578c-2.2925-1.958-4.4874-3.916-6.5848-5.923-1.6095-1.517-1.6095-4.063 0-5.58 2.0974-1.958 4.2923-3.965 6.5848-5.923 2.5363-2.154 6.3896-.391 6.3896 2.937v11.552c0 3.328-3.9021 5.091-6.3896 2.937zm22.3879-56.2909c.5366-2.9369 1.1707-5.8248 1.8047-8.6638.4878-2.1537 2.7315-3.4264 4.8288-2.7901 2.7802.8321 5.5604 1.7622 8.3894 2.7411 3.1217 1.0769 3.5606 5.3844.6829 7.0486l-4.9751 2.888-4.9751 2.8879c-2.8778 1.6643-6.3409-.8321-5.7068-4.1117zm59.7499-8.7128c2.829-.9789 5.609-1.909 8.39-2.7411 2.097-.6363 4.341.6364 4.828 2.7901.635 2.839 1.269 5.7269 1.805 8.6638.634 3.2796-2.878 5.776-5.707 4.1117l-4.975-2.8879-4.975-2.888c-2.878-1.6642-2.487-5.9228.683-7.0486zm37.411 47.5777c2.293 1.958 4.487 3.916 6.585 5.923 1.609 1.517 1.609 4.063 0 5.58-2.098 1.958-4.292 3.965-6.585 5.923-2.536 2.154-6.389.391-6.389-2.937v-11.552c0-3.328 3.902-5.091 6.389-2.937zm-87.9423-71.4155c7.9017-19.3347 18.1445-30.4459 28.1433-30.4459 9.999 0 20.242 11.1112 28.144 30.4459.634 1.5174 1.219 3.1327 1.804 4.748.781 2.1047-.39 4.4053-2.536 5.0416-6.438 1.958-13.023 4.3075-19.656 6.9997-4.976 2.0068-10.585 2.0068-15.609 0-6.6331-2.6922-13.2178-5.0417-19.6562-6.9997-2.1461-.6363-3.268-2.9858-2.5363-5.0416.5853-1.6153 1.1706-3.1817 1.8047-4.748zm-67.3103 24.8168c3.8533-6.657 13.4133-10.1813 27.0217-10.1813 4.0972 0 8.5845.3427 13.3645.979 1.6584.2447 3.3167.4895 4.9751.7832 2.2437.3916 3.6094 2.5453 3.1217 4.748-1.5121 6.5591-2.7803 13.4608-3.8045 20.5583-.7317 5.3354-3.5607 10.2302-7.8041 13.5587-5.658 4.4058-10.9745 8.9578-15.8521 13.5588-1.6096 1.517-4.1947 1.37-5.6092-.343-1.0731-1.321-2.1461-2.643-3.1704-3.965-12.7792-16.5441-17.21778-30.9839-12.1939-39.6967zm40.3862 119.8257c-20.6808 2.839-35.3623-.538-40.3374-9.251-4.97511-8.713-.5365-23.153 12.1939-39.697 1.0243-1.322 2.0486-2.644 3.1704-3.965 1.4145-1.713 3.9996-1.86 5.6092-.343 4.8776 4.601 10.1941 9.153 15.8521 13.559 4.2434 3.328 7.0724 8.223 7.8041 13.559.9755 7.146 2.2436 13.999 3.8045 20.558.4877 2.203-.878 4.356-3.1217 4.748-1.6584.294-3.3655.538-4.9751.783zm83.2604 15.614c-7.902 19.335-18.145 30.446-28.144 30.446s-20.2418-11.111-28.1435-30.446c-.6341-1.517-1.2194-3.132-1.8047-4.747-.7804-2.105.3902-4.406 2.5363-5.042 6.4384-1.958 13.0231-4.308 19.6569-7 4.975-2.007 10.633-2.007 15.608 0 6.633 2.692 13.218 5.042 19.656 7 2.147.636 3.268 2.986 2.537 5.042-.586 1.615-1.171 3.181-1.805 4.747zm67.31-24.816c-4.975 8.712-19.706 12.041-40.386 9.251-1.659-.245-3.317-.49-4.975-.783-2.244-.392-3.61-2.546-3.122-4.748 1.512-6.559 2.78-13.461 3.804-20.559.732-5.335 3.561-10.23 7.804-13.558 5.658-4.406 10.975-8.958 15.853-13.559 1.609-1.517 4.194-1.371 5.609.343 1.073 1.321 2.146 2.643 3.17 3.964 12.779 16.545 17.218 30.985 12.194 39.698z"/><path d="m93.417 102.204c0 6.217 7.268 11.259 16.193 11.259 8.926 0 16.194-5.042 16.194-11.259 0-6.216-7.268-11.2577-16.194-11.2577-8.925 0-16.193 5.0417-16.193 11.2577z"/><path d="m98.8798 148.852c5.3652-3.133 6.0972-11.943 1.6092-19.726-4.4869-7.783-12.4373-11.552-17.8027-8.419-5.3653 3.132-6.0969 11.943-1.6095 19.726 4.4873 7.783 12.4377 11.552 17.803 8.419z"/><path d="m136.388 120.805c-5.365-3.133-13.365.685-17.803 8.419-4.439 7.733-3.756 16.593 1.61 19.726 5.365 3.133 13.364-.685 17.803-8.419 4.438-7.734 3.755-16.594-1.61-19.726z"/><path d="m267.399 48.8994h119.403v20.0689h-119.403zm48.678 5.0417h21.803v140.8739h-21.803z"/><path d="m370.803 89.4289h20.827v17.6211h1.219c2.976-6.216 7.219-11.111 12.828-14.6842 5.609-3.5733 12.341-5.3844 20.291-5.3844h6.243v21.2926h-8.877c-9.95 0-17.705 3.231-23.217 9.643s-8.292 15.859-8.292 28.292v48.655h-21.022v-105.3862z"/><path d="m447.479 50.025c2.341-2.3495 5.414-3.5243 9.169-3.5243 3.756 0 6.829 1.1748 9.17 3.5243 2.342 2.3495 3.512 5.4333 3.512 9.2023 0 3.5243-1.17 6.4612-3.512 8.8107-2.341 2.3495-5.414 3.5243-9.17 3.5243-3.755 0-6.828-1.2237-9.169-3.6711-2.342-2.4474-3.512-5.3843-3.512-8.9086s1.17-6.657 3.512-9.0065zm-1.317 39.4035h21.022v105.3855h-21.022z"/><path d="m490.986 89.4289h20.827v13.9991h1.22c3.658-5.2863 8.194-9.349 13.755-12.188 5.511-2.8391 11.901-4.2586 19.168-4.2586 9.024 0 17.121 2.3006 24.242 6.9018 7.121 4.6011 12.73 11.0618 16.779 19.3348 4.048 8.321 6.048 17.964 6.048 28.879 0 10.916-2 20.559-6.048 28.88-4.049 8.321-9.609 14.782-16.682 19.383-7.072 4.602-15.071 6.902-23.948 6.902-7.414 0-13.804-1.419-19.169-4.258-5.366-2.839-10.048-6.902-13.95-12.14h-1.219v54.529h-21.023zm72.237 78.9541c5.463-6.413 8.194-15.174 8.194-26.237 0-11.062-2.731-19.824-8.194-26.236s-12.682-9.643-21.705-9.643c-9.024 0-16.828 3.133-22.242 9.447-5.365 6.266-8.097 15.076-8.097 26.432s2.683 20.167 8.097 26.432c5.365 6.266 12.779 9.447 22.242 9.447 9.462 0 16.242-3.23 21.705-9.642z"/><path d="m611.804 48.8994h21.022v145.9646h-21.022z"/><path d="m657.945 50.025c2.342-2.3495 5.415-3.5243 9.17-3.5243 3.756 0 6.829 1.1748 9.17 3.5243s3.512 5.4333 3.512 9.2023c0 3.5243-1.171 6.4612-3.512 8.8107s-5.414 3.5243-9.17 3.5243c-3.755 0-6.828-1.2237-9.17-3.6711-2.341-2.4474-3.511-5.3843-3.511-8.9086s1.17-6.657 3.511-9.0065zm-1.317 39.4035h21.023v105.3855h-21.023z"/><path d="m722.085 190.507c-7.951-4.503-14.194-10.964-18.779-19.383-4.585-8.371-6.877-18.062-6.877-28.978 0-10.915 2.292-20.558 6.877-28.879 4.585-8.322 10.877-14.7828 18.876-19.335 7.999-4.6012 16.925-6.9017 26.778-6.9017 12.779 0 23.51 3.4753 32.094 10.426 8.585 6.9507 13.853 16.2997 15.755 28.0967l-20.388 3.867c-1.464-7.049-4.536-12.629-9.17-16.839-4.634-4.209-10.731-6.265-18.291-6.265-6.487 0-11.999 1.468-16.584 4.356s-8.096 7.049-10.486 12.482c-2.439 5.385-3.659 11.748-3.659 19.041s1.22 13.657 3.659 19.041c2.438 5.433 5.901 9.545 10.486 12.482 4.585 2.888 10.097 4.356 16.584 4.356 7.56 0 13.56-2.056 18.096-6.167 4.487-4.112 7.56-9.888 9.17-17.328l20.388 5.482c-1.902 11.209-7.073 20.216-15.56 27.069-8.487 6.804-19.168 10.23-32.094 10.23-9.95 0-18.925-2.252-26.875-6.804z"/><path d="m817.392 188.647c-6.194-5.727-9.316-13.265-9.316-22.614s2.976-17.083 8.877-22.81c5.902-5.727 14.731-9.104 26.485-10.034l37.558-3.231v15.615l-33.948 3.426c-6.195.685-10.828 2.349-13.852 5.091-3.024 2.692-4.537 6.265-4.537 10.768s1.513 8.028 4.537 10.72 7.365 4.063 13.023 4.063 10.73-1.42 15.169-4.259 7.999-7.244 10.682-13.265c2.682-6.021 4.048-13.412 4.048-22.174v-13.803c0-6.363-1.853-11.356-5.56-14.978s-9.17-5.482-16.486-5.482c-7.317 0-12.78 1.517-16.584 4.552-3.756 3.035-5.951 7.146-6.487 12.286h-20.388c.39-6.902 2.39-13.02 5.95-18.454 3.561-5.384 8.585-9.5936 15.023-12.5794 6.438-2.9859 13.999-4.4543 22.632-4.4543 13.316 0 23.754 3.5243 31.314 10.5239 7.56 7.0488 11.316 16.3488 11.316 27.9498v46.599l.39 22.712h-19.998l-.195-14.587h-1.415c-3.511 5.531-8.194 9.79-14.047 12.678s-12.291 4.356-19.266 4.356c-10.487 0-18.876-2.888-25.071-8.615z"/><path d="m906.311 89.4289h65.066v17.8171h-65.066zm26.436 98.5331c-4.829-4.846-7.268-11.699-7.268-20.46v-106.8548h20.828v104.9948c0 3.524.829 6.118 2.536 7.782 1.658 1.714 4.39 2.546 8.194 2.546h16.34v19.236h-19.413c-9.316 0-16.34-2.447-21.217-7.293z"/><path d="m1005.08 190.507c-7.657-4.503-13.705-10.964-18.095-19.383-4.39-8.37-6.585-18.062-6.585-28.978 0-10.915 2.244-20.166 6.683-28.488 4.438-8.321 10.535-14.8311 18.287-19.579 7.76-4.748 16.54-7.0976 26.34-7.0976 9.81 0 18 2.1538 25.37 6.5102 7.36 4.3564 12.97 10.7194 16.97 19.1384 3.95 8.468 5.95 18.601 5.95 30.495v5.482h-86.479v-16.397h69.509l-5.08 4.65v-1.615c0-5.385-1.02-10.329-3.12-14.783s-5.12-7.978-9.07-10.524c-4-2.545-8.73-3.867-14.24-3.867s-10.73 1.322-15.27 3.965-8.1 6.706-10.68 12.139c-2.64 5.483-3.95 12.14-3.95 19.971 0 7.832 1.22 14.048 3.66 19.482 2.43 5.384 5.85 9.545 10.29 12.384s9.75 4.258 15.95 4.258c6.58 0 11.95-1.419 16.04-4.258 4.1-2.839 7.52-7.147 10.2-12.972l19.17 7.098c-3.37 9.349-8.78 16.544-16.24 21.586-7.47 5.091-17.22 7.587-29.17 7.587-9.95 0-18.78-2.252-26.44-6.804z"/></g></svg>