<svg fill="none" height="37" viewBox="0 0 200 37" width="200" xmlns="http://www.w3.org/2000/svg" xmlns:xlink="http://www.w3.org/1999/xlink"><clipPath id="a"><path d="m0 0h200v36.5812h-200z"/></clipPath><g clip-path="url(#a)" fill="#191919"><path d="m58.075 5.56847c.5426.11782.372-.07442.5178-.29766.4496-.69145 2.0402-4.554831 2.2572-4.700561l2.0992-.105421-3.4665 7.540732 3.6959 7.30814 7.0849-14.389979 2.2077-.226346-9.4073 19.261125-4.6479-9.2833-4.9889 9.2833-9.2864-18.92316c-.1829-.617022 1.9038-.40928 2.2046-.111619l7.0849 14.389979 3.696-7.30814-3.4665-7.540732c.5581.083717 1.6619-.186038 2.096.108522.3845.260453 1.9875 4.25406 2.3193 4.99512z"/><path d="m78.2818.694336v7.311284l.3472.29766c.0931.00621.1737-.18293.2326-.18293h8.8275c.0713 0 .1798.29456.3472.23254v-7.658554h2.0899v18.566564h-2.0899v-9.0507h-9.7576v9.0507h-1.8573v-18.566564h1.8573z"/><path d="m194.078.694322c3.932.486798 5.829 4.080428 4.158 7.636858-.884 1.87592-2.077 1.94722-3.724 2.55182-.251.093-.394-.1147-.316.369l5.804 8.0089-2.555-.1147-5.265-7.7206c-.034-.3907-.976-.4217-1.01-.1488l.133 7.5314-.285.4651-1.703-.0093v-18.569678c1.51.133328 3.29-.182937 4.763 0zm1.894 7.581048c1.275-1.26196 1.03-4.27578-.536-5.22457-1.187-.71934-2.682-.4899-4.006-.47439-.301.25425-.415 6.11444-.155 6.48652 1.321.5271 3.646.24805 4.697-.79067z"/><path d="m184.438 19.2611-2.292-.0279-2.099-5.1625-8.006-.1117-2.263 5.2804-2.298.0248 8.366-19.2642zm-5.343-7.1934-3.249-7.42606-3.023 7.42606z"/><path d="m129.616.694336v1.857274h-7.665v6.49893h7.432v1.85726h-7.432v6.4989h7.665v1.8542h-9.755v-18.566564z"/><path d="m148.439 4.17346c-1.234-3.224659-6.731-2.37199-6.275 1.25885.387 3.08513 7.937 2.90839 8.57 7.46629 1.051 7.5842-10.059 9.3174-11.593 1.9565l2.089-.4682c.503 5.0851 8.245 4.1983 7.42-1.0294-.539-3.40137-7.996-3.2215-8.557-7.46009-.782-5.9284084 7.577-7.44152 9.866-2.64174z"/><path d="m13.4722 19.0317-13.4722 1.8541.241849-1.3797 10.442951-1.4077-3.65257-3.6681-5.17495.6512.45579-1.2837 3.49131-.5767c-.71004-1.3271-3.00761-2.034-2.32237-3.70837.40618-.10852.46509.17364.69454.34727.76586.5736 2.86498 2.9642 3.4324 3.082l4.92995-.648-7.22132-7.30509.13333-1.28676 10.10809 9.28945c-.5488.4124-4.8494.7721-5.92844.924-.34417.0496-.57982-.0062-.80306.3535.0062.3318 4.1424 3.8076 4.6416 4.7564z"/><path d="m13.4722 19.0314c.0589.1116.3287.2047.1922.5023l-1.1224 6.2261c.2263.2449 5.1098-2.558 6.0369-2.7844l-2.4433 13.2304-1.0449-.6015 1.8604-10.5391-4.6633 2.4744-.9116 5.1842c-2.16738-.5023-.4279-2.8836-.6977-4.4091-.69452.3442-2.29134 1.5069-2.95798 1.5937-.36587.0465-1.57202-.5147-1.21855-.8929l4.51763-2.3348.8217-5.0975c-1.2403.3473-9.03838 5.0107-9.51588 4.7719-.18604-.093-.88058-.8186-.70074-1.0573l11.84752-6.2695z"/><path d="m23.9244 19.0318 11.8475 6.2694c.1799.2481-.5674 1.1318-.9395 1.0605l-9.2801-4.7781.8154 5.1005c.2047.3318 3.5254 1.786 4.2231 2.2728.1984.1395.4341-.0372.3007.5116-1.4263 1.0201-2.8587-.493-4.1765-1.1566l.4713 3.7797-1.169.6263-.8123-5.1067-4.7626-2.5518 1.8728 10.5235-1.1751.8465-2.5581-13.4598c.0558-.0124.2016-.3163.4527-.1427l5.8199 2.927-1.1038-6.4462c-.062-.1767.1488-.2294.1736-.2852z"/><path d="m15.562 12.9946-6.04003-12.297105 1.51313.226346 4.6416 9.050739 2.2046-4.53932-2.0868-4.970312c1.9162-.3968806 1.817 2.216952 2.9022 3.243262 1.1597-1.18444.9829-3.754866 3.1348-3.243262l-2.3069 4.985812 2.0774 4.52692 4.7564-9.053839 1.5131-.226346-5.8075 12.067705c-.1736.0279-.369-.0032-.4682-.1613-.2666-.4341-2.6882-5.88808-3.0138-5.64003l-3.0231 6.03383z"/><path d="m22.0675 12.7655 9.6399-9.28015.3689 1.51001-7.2213 7.30504 5.1749.7039c.2171-.0558 2.6511-2.7317 3.1844-3.14095.2325-.17984.2945-.44959.6976-.34727.6636 1.60612-1.4883 2.41852-2.3162 3.59672 1.2.9178 4.034-.3039 3.9441 1.972l-5.175-.6511-3.6494 3.668 10.0677 1.4325.617 1.355-13.4722-1.8542c.3752-.7565 4.8432-4.5982 4.6447-4.8711l-6.7376-.9333.2325-.462z"/><path d="m166.085.694336v1.857274h-4.645l-.018 16.69379-1.839.0155v-16.70929h-4.648v-1.857274z"/><path d="m114.983.694336v1.857274h-4.647v16.70929h-1.858v-16.70929h-4.645v-1.857274z"/><path d="m98.9541.694336h-2.0898v18.566564h2.0898z"/><path d="m97.7907 36.4353c-1.758.4186-1.6371-1.7208-2.2975-2.8712l-4.8649-.1054-1.2372 2.9394-1.355.0372 4.8804-11.1374zm-3.0169-4.1765-1.6278-4.1766c-.3814-.2945-1.8294 3.851-2.0868 4.1766h3.7177z"/><path d="m65.2712 36.4353-1.355-.0372-1.3457-2.9456-4.7563.1116c-.6605 1.1504-.5395 3.2898-2.2976 2.8712l4.6478-11.1374zm-3.02-4.1765c-.2574-.3256-1.7054-4.4711-2.0868-4.1766l-1.6278 4.1766h3.7177z"/><path d="m52.6921 26.4945.0372 1.355c-3.9843-3.6525-9.8104 1.1503-6.9299 5.6494 1.6123 2.5177 4.8679 2.6541 6.9299.617.2294 1.5069-.3535 1.8014-1.631 2.1983-4.8711 1.51-9.0259-3.6246-6.4617-8.0802 1.6247-2.8185 5.361-3.4634 8.0555-1.7395z"/><path d="m69.2213 31.5609v4.8742h-1.1627v-10.908c1.9658-.0062 5.1656-.0931 5.5594 2.4526.4589 2.9611-1.8573 3.8447-4.3967 3.5843zm0-.9271c4.4153.6604 4.4463-4.7006 0-3.944z"/><path d="m87.3385 25.7598.0031.9271-2.558.0031v9.7452h-1.1597v-9.7452l-2.558-.0031.0031-.9271z"/><path d="m101.974 25.7598v9.5158h2.79l-.003 1.1596h-3.947v-10.6754z"/><path d="m78.0495 25.5273h-1.1628v10.9081h1.1628z"/></g></svg>